<svg version="1.1" viewBox="0.0 0.0 600.0 371.0" fill="none" stroke="none" stroke-linecap="square" stroke-miterlimit="10" width="600" height="371" xmlns:xlink="http://www.w3.org/1999/xlink" xmlns="http://www.w3.org/2000/svg"><path fill="#ffffff" d="M0 0L600.0 0L600.0 371.0L0 371.0L0 0Z" fill-rule="nonzero"/><path stroke="#333333" stroke-width="1.0" stroke-linecap="butt" d="M77.5 289.5L581.5 289.5" fill-rule="nonzero"/><path stroke="#cccccc" stroke-width="1.0" stroke-linecap="butt" d="M77.5 223.5L581.5 223.5" fill-rule="nonzero"/><path stroke="#cccccc" stroke-width="1.0" stroke-linecap="butt" d="M77.5 157.5L581.5 157.5" fill-rule="nonzero"/><path stroke="#cccccc" stroke-width="1.0" stroke-linecap="butt" d="M77.5 91.5L581.5 91.5" fill-rule="nonzero"/><path stroke="#cccccc" stroke-width="1.0" stroke-linecap="butt" d="M77.5 25.5L581.5 25.5" fill-rule="nonzero"/><clipPath id="id_0"><path d="M77.55 25.55L581.45 25.55L581.45 289.70126L77.55 289.70126L77.55 25.55Z" clip-rule="nonzero"/></clipPath><path stroke="#000000" stroke-width="2.0" stroke-linecap="butt" stroke-opacity="0.0" clip-path="url(#id_0)" d="M570.0 290.0L549.0 290.0L549.0 80.0C549.0 78.89543 549.89545 78.0 551.0 78.0L568.0 78.0C569.10455 78.0 570.0 78.89543 570.0 80.0Z" fill-rule="nonzero"/><path fill="#4285f4" clip-path="url(#id_0)" d="M570.0 290.0L549.0 290.0L549.0 80.0C549.0 78.89543 549.89545 78.0 551.0 78.0L568.0 78.0C569.10455 78.0 570.0 78.89543 570.0 80.0Z" fill-rule="nonzero"/><path stroke="#000000" stroke-width="2.0" stroke-linecap="butt" stroke-opacity="0.0" clip-path="url(#id_0)" d="M537.0 290.0L516.0 290.0L516.0 183.0C516.0 181.89543 516.89545 181.0 518.0 181.0L535.0 181.0C536.10455 181.0 537.0 181.89543 537.0 183.0Z" fill-rule="nonzero"/><path fill="#4285f4" clip-path="url(#id_0)" d="M537.0 290.0L516.0 290.0L516.0 183.0C516.0 181.89543 516.89545 181.0 518.0 181.0L535.0 181.0C536.10455 181.0 537.0 181.89543 537.0 183.0Z" fill-rule="nonzero"/><path stroke="#000000" stroke-width="2.0" stroke-linecap="butt" stroke-opacity="0.0" clip-path="url(#id_0)" d="M505.0 290.0L484.0 290.0L484.0 203.0C484.0 201.89543 484.89542 201.0 486.0 201.0L503.0 201.0C504.10458 201.0 505.0 201.89543 505.0 203.0Z" fill-rule="nonzero"/><path fill="#4285f4" clip-path="url(#id_0)" d="M505.0 290.0L484.0 290.0L484.0 203.0C484.0 201.89543 484.89542 201.0 486.0 201.0L503.0 201.0C504.10458 201.0 505.0 201.89543 505.0 203.0Z" fill-rule="nonzero"/><path stroke="#000000" stroke-width="2.0" stroke-linecap="butt" stroke-opacity="0.0" clip-path="url(#id_0)" d="M472.0 290.0L451.0 290.0L451.0 193.0C451.0 191.89543 451.89542 191.0 453.0 191.0L470.0 191.0C471.10458 191.0 472.0 191.89543 472.0 193.0Z" fill-rule="nonzero"/><path fill="#4285f4" clip-path="url(#id_0)" d="M472.0 290.0L451.0 290.0L451.0 193.0C451.0 191.89543 451.89542 191.0 453.0 191.0L470.0 191.0C471.10458 191.0 472.0 191.89543 472.0 193.0Z" fill-rule="nonzero"/><path stroke="#000000" stroke-width="2.0" stroke-linecap="butt" stroke-opacity="0.0" clip-path="url(#id_0)" d="M439.0 290.0L418.0 290.0L418.0 249.0C418.0 247.89543 418.89542 247.0 420.0 247.0L437.0 247.0C438.10458 247.0 439.0 247.89543 439.0 249.0Z" fill-rule="nonzero"/><path fill="#4285f4" clip-path="url(#id_0)" d="M439.0 290.0L418.0 290.0L418.0 249.0C418.0 247.89543 418.89542 247.0 420.0 247.0L437.0 247.0C438.10458 247.0 439.0 247.89543 439.0 249.0Z" fill-rule="nonzero"/><path stroke="#000000" stroke-width="2.0" stroke-linecap="butt" stroke-opacity="0.0" clip-path="url(#id_0)" d="M406.0 290.0L385.0 290.0L385.0 265.0C385.0 263.89542 385.89542 263.0 387.0 263.0L404.0 263.0C405.10458 263.0 406.0 263.89542 406.0 265.0Z" fill-rule="nonzero"/><path fill="#4285f4" clip-path="url(#id_0)" d="M406.0 290.0L385.0 290.0L385.0 265.0C385.0 263.89542 385.89542 263.0 387.0 263.0L404.0 263.0C405.10458 263.0 406.0 263.89542 406.0 265.0Z" fill-rule="nonzero"/><path stroke="#000000" stroke-width="2.0" stroke-linecap="butt" stroke-opacity="0.0" clip-path="url(#id_0)" d="M373.0 290.0L352.0 290.0L352.0 252.0C352.0 250.89543 352.89542 250.0 354.0 250.0L371.0 250.0C372.10458 250.0 373.0 250.89543 373.0 252.0Z" fill-rule="nonzero"/><path fill="#4285f4" clip-path="url(#id_0)" d="M373.0 290.0L352.0 290.0L352.0 252.0C352.0 250.89543 352.89542 250.0 354.0 250.0L371.0 250.0C372.10458 250.0 373.0 250.89543 373.0 252.0Z" fill-rule="nonzero"/><path stroke="#000000" stroke-width="2.0" stroke-linecap="butt" stroke-opacity="0.0" clip-path="url(#id_0)" d="M341.0 290.0L320.0 290.0L320.0 282.0C320.0 280.89542 320.89542 280.0 322.0 280.0L339.0 280.0C340.10458 280.0 341.0 280.89542 341.0 282.0Z" fill-rule="nonzero"/><path fill="#4285f4" clip-path="url(#id_0)" d="M341.0 290.0L320.0 290.0L320.0 282.0C320.0 280.89542 320.89542 280.0 322.0 280.0L339.0 280.0C340.10458 280.0 341.0 280.89542 341.0 282.0Z" fill-rule="nonzero"/><path stroke="#000000" stroke-width="2.0" stroke-linecap="butt" stroke-opacity="0.0" clip-path="url(#id_0)" d="M308.0 290.0L287.0 290.0L287.0 288.0C287.0 286.89542 287.89542 286.0 289.0 286.0L306.0 286.0C307.10458 286.0 308.0 286.89542 308.0 288.0Z" fill-rule="nonzero"/><path fill="#4285f4" clip-path="url(#id_0)" d="M308.0 290.0L287.0 290.0L287.0 288.0C287.0 286.89542 287.89542 286.0 289.0 286.0L306.0 286.0C307.10458 286.0 308.0 286.89542 308.0 288.0Z" fill-rule="nonzero"/><path stroke="#000000" stroke-width="2.0" stroke-linecap="butt" stroke-opacity="0.0" clip-path="url(#id_0)" d="M275.0 290.0L254.0 290.0L254.0 285.0C254.0 283.89542 254.89543 283.0 256.0 283.0L273.0 283.0C274.10458 283.0 275.0 283.89542 275.0 285.0Z" fill-rule="nonzero"/><path fill="#4285f4" clip-path="url(#id_0)" d="M275.0 290.0L254.0 290.0L254.0 285.0C254.0 283.89542 254.89543 283.0 256.0 283.0L273.0 283.0C274.10458 283.0 275.0 283.89542 275.0 285.0Z" fill-rule="nonzero"/><path stroke="#000000" stroke-width="2.0" stroke-linecap="butt" stroke-opacity="0.0" clip-path="url(#id_0)" d="M242.0 290.0L221.0 290.0L221.0 285.0C221.0 283.89542 221.89543 283.0 223.0 283.0L240.0 283.0C241.10457 283.0 242.0 283.89542 242.0 285.0Z" fill-rule="nonzero"/><path fill="#4285f4" clip-path="url(#id_0)" d="M242.0 290.0L221.0 290.0L221.0 285.0C221.0 283.89542 221.89543 283.0 223.0 283.0L240.0 283.0C241.10457 283.0 242.0 283.89542 242.0 285.0Z" fill-rule="nonzero"/><path stroke="#000000" stroke-width="2.0" stroke-linecap="butt" stroke-opacity="0.0" clip-path="url(#id_0)" d="M209.0 290.0L188.0 290.0L188.0 290.0L209.0 290.0Z" fill-rule="nonzero"/><path fill="#4285f4" clip-path="url(#id_0)" d="M209.0 290.0L188.0 290.0L188.0 290.0L209.0 290.0Z" fill-rule="nonzero"/><path stroke="#000000" stroke-width="2.0" stroke-linecap="butt" stroke-opacity="0.0" clip-path="url(#id_0)" d="M176.0 290.0L155.0 290.0L155.0 290.0L176.0 290.0Z" fill-rule="nonzero"/><path fill="#4285f4" clip-path="url(#id_0)" d="M176.0 290.0L155.0 290.0L155.0 290.0L176.0 290.0Z" fill-rule="nonzero"/><path stroke="#000000" stroke-width="2.0" stroke-linecap="butt" stroke-opacity="0.0" clip-path="url(#id_0)" d="M144.0 290.0L123.0 290.0L123.0 290.0L144.0 290.0Z" fill-rule="nonzero"/><path fill="#4285f4" clip-path="url(#id_0)" d="M144.0 290.0L123.0 290.0L123.0 290.0L144.0 290.0Z" fill-rule="nonzero"/><path stroke="#000000" stroke-width="2.0" stroke-linecap="butt" stroke-opacity="0.0" clip-path="url(#id_0)" d="M111.0 290.0L90.0 290.0L90.0 290.0L111.0 290.0Z" fill-rule="nonzero"/><path fill="#4285f4" clip-path="url(#id_0)" d="M111.0 290.0L90.0 290.0L90.0 290.0L111.0 290.0Z" fill-rule="nonzero"/><path fill="#000000" d="M318.48438 349.45L321.78125 340.85626L323.0 340.85626L326.51562 349.45L325.23438 349.45L324.21875 346.84064L320.64062 346.84064L319.6875 349.45L318.48438 349.45ZM320.96875 345.91876L323.875 345.91876L322.98438 343.54376Q322.5625 342.46564 322.375 341.7625Q322.20312 342.59064 321.90625 343.40314L320.96875 345.91876ZM327.29688 349.45L327.29688 343.23126L328.23438 343.23126L328.23438 344.10626Q328.92188 343.09064 330.21875 343.09064Q330.78125 343.09064 331.25 343.29376Q331.73438 343.4969 331.96875 343.825Q332.20312 344.15314 332.29688 344.59064Q332.34375 344.8875 332.34375 345.6219L332.34375 349.45L331.29688 349.45L331.29688 345.66876Q331.29688 345.0125 331.17188 344.7Q331.04688 344.3875 330.73438 344.2Q330.42188 343.9969 330.0 343.9969Q329.32812 343.9969 328.82812 344.4344Q328.34375 344.85626 328.34375 346.04376L328.34375 349.45L327.29688 349.45ZM333.90625 346.34064Q333.90625 344.60626 334.85938 343.77814Q335.65625 343.09064 336.8125 343.09064Q338.09375 343.09064 338.90625 343.9344Q339.73438 344.7625 339.73438 346.2469Q339.73438 347.45 339.375 348.1375Q339.01562 348.825 338.3125 349.21564Q337.625 349.59064 336.8125 349.59064Q335.51562 349.59064 334.70312 348.7625Q333.90625 347.91876 333.90625 346.34064ZM334.98438 346.34064Q334.98438 347.52814 335.5 348.1219Q336.03125 348.71564 336.8125 348.71564Q337.60938 348.71564 338.125 348.1219Q338.64062 347.52814 338.64062 346.3094Q338.64062 345.15314 338.10938 344.5594Q337.59375 343.96564 336.8125 343.96564Q336.03125 343.96564 335.5 344.5594Q334.98438 345.1375 334.98438 346.34064Z" fill-rule="nonzero"/><path fill="#000000" d="M29.550013 279.57812L20.956263 279.57812L20.956263 278.42188L27.706263 273.90625L20.956263 273.90625L20.956263 272.8125L29.550013 272.8125L29.550013 273.98438L22.800013 278.5L29.550013 278.5L29.550013 279.57812ZM29.550013 266.625L28.628138 266.625Q29.690638 267.35938 29.690638 268.60938Q29.690638 269.15625 29.487513 269.64062Q29.268763 270.10938 28.956263 270.34375Q28.628138 270.57812 28.159388 270.67188Q27.862513 270.73438 27.175013 270.73438L23.331263 270.73438L23.331263 269.67188L26.784388 269.67188Q27.596888 269.67188 27.893763 269.60938Q28.300013 269.51562 28.550013 269.20312Q28.784388 268.875 28.784388 268.39062Q28.784388 267.92188 28.550013 267.51562Q28.300013 267.09375 27.878138 266.92188Q27.456263 266.73438 26.659388 266.73438L23.331263 266.73438L23.331263 265.6875L29.550013 265.6875L29.550013 266.625ZM22.550013 269.20312L20.909388 268.42188L20.909388 267.03125L22.550013 268.32812L22.550013 269.20312ZM29.550013 263.70312L23.331263 263.70312L23.331263 262.76562L24.206263 262.76562Q23.737513 262.46875 23.471888 261.98438Q23.190638 261.5 23.190638 260.875Q23.190638 260.1875 23.471888 259.75Q23.753138 259.29688 24.268763 259.125Q23.190638 258.375 23.190638 257.20312Q23.190638 256.26562 23.706263 255.78125Q24.206263 255.28125 25.284388 255.28125L29.550013 255.28125L29.550013 256.32812L25.628138 256.32812Q25.003138 256.32812 24.721888 256.4375Q24.440638 256.53125 24.268763 256.79688Q24.096888 257.0625 24.096888 257.4375Q24.096888 258.09375 24.534388 258.53125Q24.971888 258.95312 25.940638 258.95312L29.550013 258.95312L29.550013 260.01562L25.503138 260.01562Q24.800013 260.01562 24.456263 260.28125Q24.096888 260.53125 24.096888 261.10938Q24.096888 261.5625 24.331263 261.9375Q24.565638 262.3125 25.018763 262.48438Q25.471888 262.65625 26.315638 262.65625L29.550013 262.65625L29.550013 263.70312ZM27.550013 249.45312L27.675013 248.35938Q28.628138 248.60938 29.159388 249.3125Q29.690638 250.01562 29.690638 251.09375Q29.690638 252.45312 28.846888 253.26562Q28.003138 254.0625 26.487513 254.0625Q24.925013 254.0625 24.065638 253.25Q23.190638 252.4375 23.190638 251.15625Q23.190638 249.90625 24.034388 249.125Q24.878138 248.32812 26.425013 248.32812Q26.518763 248.32812 26.706263 248.32812L26.706263 252.96875Q27.737513 252.90625 28.284388 252.39062Q28.815638 251.875 28.815638 251.09375Q28.815638 250.51562 28.518763 250.10938Q28.206263 249.6875 27.550013 249.45312ZM25.846888 252.90625L25.846888 249.4375Q25.050013 249.5 24.659388 249.82812Q24.050013 250.34375 24.050013 251.14062Q24.050013 251.875 24.534388 252.375Q25.018763 252.85938 25.846888 252.90625ZM29.550013 246.71875L23.331263 246.71875L23.331263 245.76562L24.268763 245.76562Q23.612513 245.40625 23.409388 245.10938Q23.190638 244.79688 23.190638 244.42188Q23.190638 243.89062 23.518763 243.34375L24.503138 243.70312Q24.268763 244.09375 24.268763 244.46875Q24.268763 244.82812 24.487513 245.10938Q24.690638 245.375 25.065638 245.48438Q25.628138 245.67188 26.284388 245.67188L29.550013 245.67188L29.550013 246.71875ZM26.440638 243.09375Q24.706263 243.09375 23.878138 242.14062Q23.190638 241.34375 23.190638 240.1875Q23.190638 238.90625 24.034388 238.09375Q24.862513 237.26562 26.346888 237.26562Q27.550013 237.26562 28.237513 237.625Q28.925013 237.98438 29.315638 238.6875Q29.690638 239.375 29.690638 240.1875Q29.690638 241.48438 28.862513 242.29688Q28.018763 243.09375 26.440638 243.09375ZM26.440638 242.01562Q27.628138 242.01562 28.221888 241.5Q28.815638 240.96875 28.815638 240.1875Q28.815638 239.39062 28.221888 238.875Q27.628138 238.35938 26.409388 238.35938Q25.253138 238.35938 24.659388 238.89062Q24.065638 239.40625 24.065638 240.1875Q24.065638 240.96875 24.659388 241.5Q25.237513 242.01562 26.440638 242.01562ZM29.550013 228.67188L28.768763 228.67188Q29.690638 229.26562 29.690638 230.40625Q29.690638 231.15625 29.284388 231.78125Q28.862513 232.40625 28.128138 232.75Q27.393763 233.09375 26.440638 233.09375Q25.518763 233.09375 24.753138 232.78125Q23.987513 232.46875 23.596888 231.84375Q23.190638 231.21875 23.190638 230.45312Q23.190638 229.89062 23.425013 229.45312Q23.659388 229.01562 24.034388 228.73438L20.956263 228.73438L20.956263 227.6875L29.550013 227.6875L29.550013 228.67188ZM26.440638 232.0Q27.643763 232.0 28.237513 231.5Q28.815638 231.0 28.815638 230.3125Q28.815638 229.625 28.253138 229.14062Q27.690638 228.65625 26.534388 228.65625Q25.253138 228.65625 24.659388 229.15625Q24.065638 229.64062 24.065638 230.35938Q24.065638 231.0625 24.643763 231.53125Q25.206263 232.0 26.440638 232.0ZM27.550013 221.45312L27.675013 220.35938Q28.628138 220.60938 29.159388 221.3125Q29.690638 222.01562 29.690638 223.09375Q29.690638 224.45312 28.846888 225.26562Q28.003138 226.0625 26.487513 226.0625Q24.925013 226.0625 24.065638 225.25Q23.190638 224.4375 23.190638 223.15625Q23.190638 221.90625 24.034388 221.125Q24.878138 220.32812 26.425013 220.32812Q26.518763 220.32812 26.706263 220.32812L26.706263 224.96875Q27.737513 224.90625 28.284388 224.39062Q28.815638 223.875 28.815638 223.09375Q28.815638 222.51562 28.518763 222.10938Q28.206263 221.6875 27.550013 221.45312ZM25.846888 224.90625L25.846888 221.4375Q25.050013 221.5 24.659388 221.82812Q24.050013 222.34375 24.050013 223.14062Q24.050013 223.875 24.534388 224.375Q25.018763 224.85938 25.846888 224.90625ZM28.784388 211.64062Q29.284388 212.23438 29.487513 212.78125Q29.690638 213.3125 29.690638 213.9375Q29.690638 214.96875 29.190638 215.51562Q28.690638 216.0625 27.909388 216.0625Q27.456263 216.0625 27.081263 215.85938Q26.690638 215.65625 26.471888 215.3125Q26.237513 214.96875 26.128138 214.54688Q26.034388 214.25 25.956263 213.60938Q25.815638 212.34375 25.596888 211.73438Q25.378138 211.73438 25.331263 211.73438Q24.675013 211.73438 24.409388 212.03125Q24.065638 212.4375 24.065638 213.23438Q24.065638 213.96875 24.331263 214.32812Q24.581263 214.6875 25.237513 214.85938L25.096888 215.89062Q24.440638 215.75 24.034388 215.42188Q23.628138 215.09375 23.409388 214.48438Q23.190638 213.875 23.190638 213.07812Q23.190638 212.28125 23.378138 211.78125Q23.565638 211.28125 23.846888 211.04688Q24.128138 210.8125 24.565638 210.71875Q24.831263 210.67188 25.534388 210.67188L26.940638 210.67188Q28.409388 210.67188 28.800013 210.60938Q29.190638 210.53125 29.550013 210.32812L29.550013 211.4375Q29.221888 211.59375 28.784388 211.64062ZM26.425013 211.73438Q26.659388 212.3125 26.831263 213.45312Q26.925013 214.10938 27.050013 214.375Q27.159388 214.64062 27.378138 214.79688Q27.596888 214.9375 27.878138 214.9375Q28.300013 214.9375 28.581263 214.625Q28.862513 214.29688 28.862513 213.6875Q28.862513 213.07812 28.596888 212.60938Q28.331263 212.125 27.862513 211.90625Q27.503138 211.73438 26.815638 211.73438L26.425013 211.73438ZM29.550013 208.71875L23.331263 208.71875L23.331263 207.76562L24.268763 207.76562Q23.612513 207.40625 23.409388 207.10938Q23.190638 206.79688 23.190638 206.42188Q23.190638 205.89062 23.518763 205.34375L24.503138 205.70312Q24.268763 206.09375 24.268763 206.46875Q24.268763 206.82812 24.487513 207.10938Q24.690638 207.375 25.065638 207.48438Q25.628138 207.67188 26.284388 207.67188L29.550013 207.67188L29.550013 208.71875ZM28.612513 202.40625L29.534388 202.25Q29.628138 202.70312 29.628138 203.04688Q29.628138 203.625 29.456263 203.9375Q29.268763 204.25 28.971888 204.39062Q28.675013 204.51562 27.721888 204.51562L24.143763 204.51562L24.143763 205.28125L23.331263 205.28125L23.331263 204.51562L21.784388 204.51562L21.159388 203.46875L23.331263 203.46875L23.331263 202.40625L24.143763 202.40625L24.143763 203.46875L27.784388 203.46875Q28.237513 203.46875 28.362513 203.42188Q28.487513 203.35938 28.565638 203.23438Q28.643763 203.10938 28.643763 202.875Q28.643763 202.6875 28.612513 202.40625ZM22.175013 201.70312L20.956263 201.70312L20.956263 200.64062L22.175013 200.64062L22.175013 201.70312ZM29.550013 201.70312L23.331263 201.70312L23.331263 200.64062L29.550013 200.64062L29.550013 201.70312ZM30.065638 198.90625L30.221888 197.875Q30.690638 197.8125 30.909388 197.51562Q31.206263 197.125 31.206263 196.45312Q31.206263 195.71875 30.909388 195.32812Q30.612513 194.92188 30.096888 194.78125Q29.768763 194.6875 28.737513 194.70312Q29.550013 195.39062 29.550013 196.42188Q29.550013 197.70312 28.628138 198.40625Q27.690638 199.10938 26.409388 199.10938Q25.518763 199.10938 24.768763 198.79688Q24.003138 198.46875 23.596888 197.85938Q23.190638 197.25 23.190638 196.42188Q23.190638 195.3125 24.081263 194.59375L23.331263 194.59375L23.331263 193.625L28.706263 193.625Q30.159388 193.625 30.768763 193.92188Q31.378138 194.21875 31.721888 194.85938Q32.08126 195.5 32.08126 196.4375Q32.08126 197.54688 31.581263 198.23438Q31.081263 198.92188 30.065638 198.90625ZM26.331263 198.03125Q27.550013 198.03125 28.112513 197.54688Q28.675013 197.0625 28.675013 196.32812Q28.675013 195.59375 28.112513 195.10938Q27.550013 194.60938 26.362513 194.60938Q25.221888 194.60938 24.643763 195.125Q24.065638 195.625 24.065638 196.34375Q24.065638 197.04688 24.643763 197.54688Q25.206263 198.03125 26.331263 198.03125ZM26.440638 192.09375Q24.706263 192.09375 23.878138 191.14062Q23.190638 190.34375 23.190638 189.1875Q23.190638 187.90625 24.034388 187.09375Q24.862513 186.26562 26.346888 186.26562Q27.550013 186.26562 28.237513 186.625Q28.925013 186.98438 29.315638 187.6875Q29.690638 188.375 29.690638 189.1875Q29.690638 190.48438 28.862513 191.29688Q28.018763 192.09375 26.440638 192.09375ZM26.440638 191.01562Q27.628138 191.01562 28.221888 190.5Q28.815638 189.96875 28.815638 189.1875Q28.815638 188.39062 28.221888 187.875Q27.628138 187.35938 26.409388 187.35938Q25.253138 187.35938 24.659388 187.89062Q24.065638 188.40625 24.065638 189.1875Q24.065638 189.96875 24.659388 190.5Q25.237513 191.01562 26.440638 191.01562ZM27.690638 185.125L27.534388 184.09375Q28.159388 184.0 28.487513 183.60938Q28.815638 183.20312 28.815638 182.46875Q28.815638 181.75 28.534388 181.40625Q28.237513 181.04688 27.831263 181.04688Q27.471888 181.04688 27.268763 181.35938Q27.128138 181.57812 26.909388 182.4375Q26.612513 183.59375 26.409388 184.04688Q26.190638 184.48438 25.815638 184.71875Q25.440638 184.95312 24.971888 184.95312Q24.565638 184.95312 24.206263 184.76562Q23.846888 184.57812 23.612513 184.25Q23.440638 184.0 23.315638 183.57812Q23.190638 183.15625 23.190638 182.65625Q23.190638 181.9375 23.409388 181.39062Q23.612513 180.82812 23.971888 180.5625Q24.331263 180.29688 24.925013 180.20312L25.065638 181.23438Q24.596888 181.29688 24.331263 181.64062Q24.050013 181.96875 24.050013 182.59375Q24.050013 183.3125 24.300013 183.625Q24.534388 183.9375 24.862513 183.9375Q25.065638 183.9375 25.221888 183.8125Q25.393763 183.67188 25.503138 183.40625Q25.565638 183.25 25.768763 182.46875Q26.081263 181.34375 26.268763 180.90625Q26.456263 180.46875 26.815638 180.21875Q27.175013 179.96875 27.721888 179.96875Q28.253138 179.96875 28.721888 180.28125Q29.175013 180.57812 29.440638 181.15625Q29.690638 181.73438 29.690638 182.46875Q29.690638 183.6875 29.190638 184.32812Q28.675013 184.95312 27.690638 185.125ZM22.175013 175.70312L20.956263 175.70312L20.956263 174.64062L22.175013 174.64062L22.175013 175.70312ZM29.550013 175.70312L23.331263 175.70312L23.331263 174.64062L29.550013 174.64062L29.550013 175.70312ZM29.550013 172.70312L23.331263 172.70312L23.331263 171.76562L24.206263 171.76562Q23.190638 171.07812 23.190638 169.78125Q23.190638 169.21875 23.393763 168.75Q23.596888 168.26562 23.925013 168.03125Q24.253138 167.79688 24.690638 167.70312Q24.987513 167.65625 25.721888 167.65625L29.550013 167.65625L29.550013 168.70312L25.768763 168.70312Q25.112513 168.70312 24.800013 168.82812Q24.487513 168.95312 24.300013 169.26562Q24.096888 169.57812 24.096888 170.0Q24.096888 170.67188 24.534388 171.17188Q24.956263 171.65625 26.143763 171.65625L29.550013 171.65625L29.550013 172.70312ZM29.550013 161.67188L28.768763 161.67188Q29.690638 162.26562 29.690638 163.40625Q29.690638 164.15625 29.284388 164.78125Q28.862513 165.40625 28.128138 165.75Q27.393763 166.09375 26.440638 166.09375Q25.518763 166.09375 24.753138 165.78125Q23.987513 165.46875 23.596888 164.84375Q23.190638 164.21875 23.190638 163.45312Q23.190638 162.89062 23.425013 162.45312Q23.659388 162.01562 24.034388 161.73438L20.956263 161.73438L20.956263 160.6875L29.550013 160.6875L29.550013 161.67188ZM26.440638 165.0Q27.643763 165.0 28.237513 164.5Q28.815638 164.0 28.815638 163.3125Q28.815638 162.625 28.253138 162.14062Q27.690638 161.65625 26.534388 161.65625Q25.253138 161.65625 24.659388 162.15625Q24.065638 162.64062 24.065638 163.35938Q24.065638 164.0625 24.643763 164.53125Q25.206263 165.0 26.440638 165.0ZM27.550013 154.45312L27.675013 153.35938Q28.628138 153.60938 29.159388 154.3125Q29.690638 155.01562 29.690638 156.09375Q29.690638 157.45312 28.846888 158.26562Q28.003138 159.0625 26.487513 159.0625Q24.925013 159.0625 24.065638 158.25Q23.190638 157.4375 23.190638 156.15625Q23.190638 154.90625 24.034388 154.125Q24.878138 153.32812 26.425013 153.32812Q26.518763 153.32812 26.706263 153.32812L26.706263 157.96875Q27.737513 157.90625 28.284388 157.39062Q28.815638 156.875 28.815638 156.09375Q28.815638 155.51562 28.518763 155.10938Q28.206263 154.6875 27.550013 154.45312ZM25.846888 157.90625L25.846888 154.4375Q25.050013 154.5 24.659388 154.82812Q24.050013 155.34375 24.050013 156.14062Q24.050013 156.875 24.534388 157.375Q25.018763 157.85938 25.846888 157.90625ZM29.550013 152.40625L26.315638 150.14062L23.331263 152.23438L23.331263 150.92188L24.784388 149.96875Q25.206263 149.70312 25.487513 149.53125Q25.096888 149.28125 24.800013 149.0625L23.331263 148.01562L23.331263 146.75L26.253138 148.90625L29.550013 146.59375L29.550013 147.875L27.612513 149.15625L27.096888 149.5L29.550013 151.14062L29.550013 152.40625ZM28.784388 141.64062Q29.284388 142.23438 29.487513 142.78125Q29.690638 143.3125 29.690638 143.9375Q29.690638 144.96875 29.190638 145.51562Q28.690638 146.0625 27.909388 146.0625Q27.456263 146.0625 27.081263 145.85938Q26.690638 145.65625 26.471888 145.3125Q26.237513 144.96875 26.128138 144.54688Q26.034388 144.25 25.956263 143.60938Q25.815638 142.34375 25.596888 141.73438Q25.378138 141.73438 25.331263 141.73438Q24.675013 141.73438 24.409388 142.03125Q24.065638 142.4375 24.065638 143.23438Q24.065638 143.96875 24.331263 144.32812Q24.581263 144.6875 25.237513 144.85938L25.096888 145.89062Q24.440638 145.75 24.034388 145.42188Q23.628138 145.09375 23.409388 144.48438Q23.190638 143.875 23.190638 143.07812Q23.190638 142.28125 23.378138 141.78125Q23.565638 141.28125 23.846888 141.04688Q24.128138 140.8125 24.565638 140.71875Q24.831263 140.67188 25.534388 140.67188L26.940638 140.67188Q28.409388 140.67188 28.800013 140.60938Q29.190638 140.53125 29.550013 140.32812L29.550013 141.4375Q29.221888 141.59375 28.784388 141.64062ZM26.425013 141.73438Q26.659388 142.3125 26.831263 143.45312Q26.925013 144.10938 27.050013 144.375Q27.159388 144.64062 27.378138 144.79688Q27.596888 144.9375 27.878138 144.9375Q28.300013 144.9375 28.581263 144.625Q28.862513 144.29688 28.862513 143.6875Q28.862513 143.07812 28.596888 142.60938Q28.331263 142.125 27.862513 141.90625Q27.503138 141.73438 26.815638 141.73438L26.425013 141.73438ZM29.550013 134.67188L28.768763 134.67188Q29.690638 135.26562 29.690638 136.40625Q29.690638 137.15625 29.284388 137.78125Q28.862513 138.40625 28.128138 138.75Q27.393763 139.09375 26.440638 139.09375Q25.518763 139.09375 24.753138 138.78125Q23.987513 138.46875 23.596888 137.84375Q23.190638 137.21875 23.190638 136.45312Q23.190638 135.89062 23.425013 135.45312Q23.659388 135.01562 24.034388 134.73438L20.956263 134.73438L20.956263 133.6875L29.550013 133.6875L29.550013 134.67188ZM26.440638 138.0Q27.643763 138.0 28.237513 137.5Q28.815638 137.0 28.815638 136.3125Q28.815638 135.625 28.253138 135.14062Q27.690638 134.65625 26.534388 134.65625Q25.253138 134.65625 24.659388 135.15625Q24.065638 135.64062 24.065638 136.35938Q24.065638 137.0625 24.643763 137.53125Q25.206263 138.0 26.440638 138.0ZM26.440638 132.09375Q24.706263 132.09375 23.878138 131.14062Q23.190638 130.34375 23.190638 129.1875Q23.190638 127.90625 24.034388 127.09375Q24.862513 126.265625 26.346888 126.265625Q27.550013 126.265625 28.237513 126.625Q28.925013 126.984375 29.315638 127.6875Q29.690638 128.375 29.690638 129.1875Q29.690638 130.48438 28.862513 131.29688Q28.018763 132.09375 26.440638 132.09375ZM26.440638 131.01562Q27.628138 131.01562 28.221888 130.5Q28.815638 129.96875 28.815638 129.1875Q28.815638 128.39062 28.221888 127.875Q27.628138 127.359375 26.409388 127.359375Q25.253138 127.359375 24.659388 127.890625Q24.065638 128.40625 24.065638 129.1875Q24.065638 129.96875 24.659388 130.5Q25.237513 131.01562 26.440638 131.01562ZM27.690638 125.125L27.534388 124.09375Q28.159388 124.0 28.487513 123.609375Q28.815638 123.203125 28.815638 122.46875Q28.815638 121.75 28.534388 121.40625Q28.237513 121.046875 27.831263 121.046875Q27.471888 121.046875 27.268763 121.359375Q27.128138 121.578125 26.909388 122.4375Q26.612513 123.59375 26.409388 124.046875Q26.190638 124.484375 25.815638 124.71875Q25.440638 124.953125 24.971888 124.953125Q24.565638 124.953125 24.206263 124.765625Q23.846888 124.578125 23.612513 124.25Q23.440638 124.0 23.315638 123.578125Q23.190638 123.15625 23.190638 122.65625Q23.190638 121.9375 23.409388 121.390625Q23.612513 120.828125 23.971888 120.5625Q24.331263 120.296875 24.925013 120.203125L25.065638 121.234375Q24.596888 121.296875 24.331263 121.640625Q24.050013 121.96875 24.050013 122.59375Q24.050013 123.3125 24.300013 123.625Q24.534388 123.9375 24.862513 123.9375Q25.065638 123.9375 25.221888 123.8125Q25.393763 123.671875 25.503138 123.40625Q25.565638 123.25 25.768763 122.46875Q26.081263 121.34375 26.268763 120.90625Q26.456263 120.46875 26.815638 120.21875Q27.175013 119.96875 27.721888 119.96875Q28.253138 119.96875 28.721888 120.28125Q29.175013 120.578125 29.440638 121.15625Q29.690638 121.734375 29.690638 122.46875Q29.690638 123.6875 29.190638 124.328125Q28.675013 124.953125 27.690638 125.125ZM29.550013 115.703125L23.331263 115.703125L23.331263 114.765625L24.206263 114.765625Q23.190638 114.078125 23.190638 112.78125Q23.190638 112.21875 23.393763 111.75Q23.596888 111.265625 23.925013 111.03125Q24.253138 110.796875 24.690638 110.703125Q24.987513 110.65625 25.721888 110.65625L29.550013 110.65625L29.550013 111.703125L25.768763 111.703125Q25.112513 111.703125 24.800013 111.828125Q24.487513 111.953125 24.300013 112.265625Q24.096888 112.578125 24.096888 113.0Q24.096888 113.671875 24.534388 114.171875Q24.956263 114.65625 26.143763 114.65625L29.550013 114.65625L29.550013 115.703125ZM26.440638 109.09375Q24.706263 109.09375 23.878138 108.140625Q23.190638 107.34375 23.190638 106.1875Q23.190638 104.90625 24.034388 104.09375Q24.862513 103.265625 26.346888 103.265625Q27.550013 103.265625 28.237513 103.625Q28.925013 103.984375 29.315638 104.6875Q29.690638 105.375 29.690638 106.1875Q29.690638 107.484375 28.862513 108.296875Q28.018763 109.09375 26.440638 109.09375ZM26.440638 108.015625Q27.628138 108.015625 28.221888 107.5Q28.815638 106.96875 28.815638 106.1875Q28.815638 105.390625 28.221888 104.875Q27.628138 104.359375 26.409388 104.359375Q25.253138 104.359375 24.659388 104.890625Q24.065638 105.40625 24.065638 106.1875Q24.065638 106.96875 24.659388 107.5Q25.237513 108.015625 26.440638 108.015625ZM26.784388 98.953125L26.690638 97.890625Q27.346888 97.8125 27.753138 97.53125Q28.159388 97.25 28.425013 96.671875Q28.675013 96.078125 28.675013 95.34375Q28.675013 94.703125 28.487513 94.203125Q28.284388 93.703125 27.956263 93.46875Q27.612513 93.21875 27.221888 93.21875Q26.815638 93.21875 26.518763 93.453125Q26.206263 93.6875 26.003138 94.21875Q25.862513 94.578125 25.581263 95.765625Q25.300013 96.9375 25.050013 97.40625Q24.721888 98.03125 24.253138 98.328125Q23.768763 98.625 23.175013 98.625Q22.534388 98.625 21.971888 98.265625Q21.393763 97.890625 21.112513 97.1875Q20.815638 96.46875 20.815638 95.609375Q20.815638 94.65625 21.128138 93.921875Q21.425013 93.1875 22.034388 92.796875Q22.628138 92.40625 23.378138 92.375L23.456263 93.46875Q22.643763 93.5625 22.237513 94.078125Q21.815638 94.578125 21.815638 95.5625Q21.815638 96.59375 22.190638 97.0625Q22.565638 97.53125 23.096888 97.53125Q23.565638 97.53125 23.862513 97.203125Q24.159388 96.875 24.471888 95.5Q24.784388 94.109375 25.018763 93.59375Q25.378138 92.84375 25.909388 92.484375Q26.425013 92.125 27.128138 92.125Q27.815638 92.125 28.425013 92.515625Q29.018763 92.90625 29.362513 93.640625Q29.690638 94.375 29.690638 95.296875Q29.690638 96.46875 29.362513 97.265625Q29.018763 98.046875 28.331263 98.5Q27.643763 98.9375 26.784388 98.953125ZM27.268763 86.640625L27.409388 85.609375Q28.471888 85.78125 29.081263 86.484375Q29.690638 87.1875 29.690638 88.203125Q29.690638 89.484375 28.862513 90.265625Q28.018763 91.03125 26.456263 91.03125Q25.456263 91.03125 24.706263 90.703125Q23.940638 90.359375 23.565638 89.6875Q23.190638 89.0 23.190638 88.1875Q23.190638 87.1875 23.706263 86.546875Q24.206263 85.890625 25.159388 85.703125L25.315638 86.734375Q24.690638 86.875 24.378138 87.25Q24.050013 87.625 24.050013 88.15625Q24.050013 88.953125 24.628138 89.453125Q25.190638 89.953125 26.425013 89.953125Q27.690638 89.953125 28.253138 89.46875Q28.815638 88.984375 28.815638 88.21875Q28.815638 87.59375 28.440638 87.1875Q28.065638 86.765625 27.268763 86.640625ZM26.440638 85.09375Q24.706263 85.09375 23.878138 84.140625Q23.190638 83.34375 23.190638 82.1875Q23.190638 80.90625 24.034388 80.09375Q24.862513 79.265625 26.346888 79.265625Q27.550013 79.265625 28.237513 79.625Q28.925013 79.984375 29.315638 80.6875Q29.690638 81.375 29.690638 82.1875Q29.690638 83.484375 28.862513 84.296875Q28.018763 85.09375 26.440638 85.09375ZM26.440638 84.015625Q27.628138 84.015625 28.221888 83.5Q28.815638 82.96875 28.815638 82.1875Q28.815638 81.390625 28.221888 80.875Q27.628138 80.359375 26.409388 80.359375Q25.253138 80.359375 24.659388 80.890625Q24.065638 81.40625 24.065638 82.1875Q24.065638 82.96875 24.659388 83.5Q25.237513 84.015625 26.440638 84.015625ZM31.940638 77.703125L23.331263 77.703125L23.331263 76.75L24.128138 76.75Q23.659388 76.40625 23.425013 75.984375Q23.190638 75.546875 23.190638 74.9375Q23.190638 74.140625 23.596888 73.53125Q24.003138 72.921875 24.753138 72.625Q25.503138 72.3125 26.393763 72.3125Q27.346888 72.3125 28.112513 72.65625Q28.878138 72.984375 29.284388 73.640625Q29.690638 74.296875 29.690638 75.015625Q29.690638 75.546875 29.471888 75.96875Q29.237513 76.390625 28.909388 76.65625L31.940638 76.65625L31.940638 77.703125ZM26.471888 76.75Q27.675013 76.75 28.253138 76.265625Q28.815638 75.78125 28.815638 75.09375Q28.815638 74.390625 28.221888 73.890625Q27.628138 73.390625 26.378138 73.390625Q25.190638 73.390625 24.612513 73.875Q24.018763 74.359375 24.018763 75.046875Q24.018763 75.71875 24.643763 76.234375Q25.268763 76.75 26.471888 76.75ZM29.550013 66.625L28.628138 66.625Q29.690638 67.359375 29.690638 68.609375Q29.690638 69.15625 29.487513 69.640625Q29.268763 70.109375 28.956263 70.34375Q28.628138 70.578125 28.159388 70.671875Q27.862513 70.734375 27.175013 70.734375L23.331263 70.734375L23.331263 69.671875L26.784388 69.671875Q27.596888 69.671875 27.893763 69.609375Q28.300013 69.515625 28.550013 69.203125Q28.784388 68.875 28.784388 68.390625Q28.784388 67.921875 28.550013 67.515625Q28.300013 67.09375 27.878138 66.921875Q27.456263 66.734375 26.659388 66.734375L23.331263 66.734375L23.331263 65.6875L29.550013 65.6875L29.550013 66.625ZM27.690638 64.125L27.534388 63.09375Q28.159388 63.0 28.487513 62.609375Q28.815638 62.203125 28.815638 61.46875Q28.815638 60.75 28.534388 60.40625Q28.237513 60.046875 27.831263 60.046875Q27.471888 60.046875 27.268763 60.359375Q27.128138 60.578125 26.909388 61.4375Q26.612513 62.59375 26.409388 63.046875Q26.190638 63.484375 25.815638 63.71875Q25.440638 63.953125 24.971888 63.953125Q24.565638 63.953125 24.206263 63.765625Q23.846888 63.578125 23.612513 63.25Q23.440638 63.0 23.315638 62.578125Q23.190638 62.15625 23.190638 61.65625Q23.190638 60.9375 23.409388 60.390625Q23.612513 59.828125 23.971888 59.5625Q24.331263 59.296875 24.925013 59.203125L25.065638 60.234375Q24.596888 60.296875 24.331263 60.640625Q24.050013 60.96875 24.050013 61.59375Q24.050013 62.3125 24.300013 62.625Q24.534388 62.9375 24.862513 62.9375Q25.065638 62.9375 25.221888 62.8125Q25.393763 62.671875 25.503138 62.40625Q25.565638 62.25 25.768763 61.46875Q26.081263 60.34375 26.268763 59.90625Q26.456263 59.46875 26.815638 59.21875Q27.175013 58.96875 27.721888 58.96875Q28.253138 58.96875 28.721888 59.28125Q29.175013 59.578125 29.440638 60.15625Q29.690638 60.734375 29.690638 61.46875Q29.690638 62.6875 29.190638 63.328125Q28.675013 63.953125 27.690638 64.125Z" fill-rule="nonzero"/><path fill="#000000" d="M65.05 289.4669Q65.05 287.93564 65.3625 287.01376Q65.675 286.07626 66.28438 285.57626Q66.90938 285.07626 67.84688 285.07626Q68.53438 285.07626 69.05 285.3575Q69.58125 285.63876 69.925 286.17Q70.26875 286.68564 70.45625 287.43564Q70.64375 288.18564 70.64375 289.4669Q70.64375 290.9825 70.33125 291.9044Q70.03438 292.82626 69.40938 293.3419Q68.8 293.8419 67.84688 293.8419Q66.6125 293.8419 65.89375 292.95126Q65.05 291.88876 65.05 289.4669ZM66.12813 289.4669Q66.12813 291.57626 66.62813 292.2794Q67.12813 292.9825 67.84688 292.9825Q68.58125 292.9825 69.06563 292.2794Q69.56563 291.57626 69.56563 289.4669Q69.56563 287.3419 69.06563 286.6544Q68.58125 285.95126 67.83125 285.95126Q67.1125 285.95126 66.675 286.56064Q66.12813 287.3419 66.12813 289.4669Z" fill-rule="nonzero"/><path fill="#000000" d="M63.596874 226.64783L63.596874 227.66345L57.909374 227.66345Q57.909374 227.28845 58.034374 226.92908Q58.253124 226.35095 58.721874 225.78845Q59.20625 225.22595 60.1125 224.49158Q61.51875 223.33533 62.003124 222.66345Q62.503124 221.99158 62.503124 221.39783Q62.503124 220.77283 62.05 220.35095Q61.596874 219.91345 60.878124 219.91345Q60.1125 219.91345 59.659374 220.36658Q59.20625 220.8197 59.190624 221.6322L58.1125 221.52283Q58.221874 220.30408 58.940624 219.67908Q59.675 219.03845 60.909374 219.03845Q62.14375 219.03845 62.8625 219.72595Q63.58125 220.41345 63.58125 221.42908Q63.58125 221.9447 63.3625 222.4447Q63.159374 222.92908 62.659374 223.49158Q62.175 224.03845 61.05 224.99158Q60.096874 225.78845 59.815624 226.08533Q59.55 226.36658 59.378124 226.64783L63.596874 226.64783ZM65.05 223.42908Q65.05 221.89783 65.3625 220.97595Q65.675 220.03845 66.28438 219.53845Q66.90938 219.03845 67.84688 219.03845Q68.53438 219.03845 69.05 219.3197Q69.58125 219.60095 69.925 220.1322Q70.26875 220.64783 70.45625 221.39783Q70.64375 222.14783 70.64375 223.42908Q70.64375 224.9447 70.33125 225.86658Q70.03438 226.78845 69.40938 227.30408Q68.8 227.80408 67.84688 227.80408Q66.6125 227.80408 65.89375 226.91345Q65.05 225.85095 65.05 223.42908ZM66.12813 223.42908Q66.12813 225.53845 66.62813 226.24158Q67.12813 226.9447 67.84688 226.9447Q68.58125 226.9447 69.06563 226.24158Q69.56563 225.53845 69.56563 223.42908Q69.56563 221.30408 69.06563 220.61658Q68.58125 219.91345 67.83125 219.91345Q67.1125 219.91345 66.675 220.52283Q66.12813 221.30408 66.12813 223.42908Z" fill-rule="nonzero"/><path fill="#000000" d="M61.425 161.62563L61.425 159.56313L57.70625 159.56313L57.70625 158.59438L61.628124 153.03188L62.4875 153.03188L62.4875 158.59438L63.64375 158.59438L63.64375 159.56313L62.4875 159.56313L62.4875 161.62563L61.425 161.62563ZM61.425 158.59438L61.425 154.735L58.7375 158.59438L61.425 158.59438ZM65.05 157.39125Q65.05 155.86 65.3625 154.93813Q65.675 154.00063 66.28438 153.50063Q66.90938 153.00063 67.84688 153.00063Q68.53438 153.00063 69.05 153.28188Q69.58125 153.56313 69.925 154.09438Q70.26875 154.61 70.45625 155.36Q70.64375 156.11 70.64375 157.39125Q70.64375 158.90688 70.33125 159.82875Q70.03438 160.75063 69.40938 161.26625Q68.8 161.76625 67.84688 161.76625Q66.6125 161.76625 65.89375 160.87563Q65.05 159.81313 65.05 157.39125ZM66.12813 157.39125Q66.12813 159.50063 66.62813 160.20375Q67.12813 160.90688 67.84688 160.90688Q68.58125 160.90688 69.06563 160.20375Q69.56563 159.50063 69.56563 157.39125Q69.56563 155.26625 69.06563 154.57875Q68.58125 153.87563 67.83125 153.87563Q67.1125 153.87563 66.675 154.485Q66.12813 155.26625 66.12813 157.39125Z" fill-rule="nonzero"/><path fill="#000000" d="M63.51875 89.10344L62.471874 89.181564Q62.33125 88.556564 62.08125 88.275314Q61.64375 87.82219 61.01875 87.82219Q60.51875 87.82219 60.128124 88.10344Q59.64375 88.47844 59.346874 89.181564Q59.065624 89.869064 59.05 91.150314Q59.425 90.57219 59.971874 90.29094Q60.534374 90.00969 61.14375 90.00969Q62.190624 90.00969 62.925 90.79094Q63.675 91.57219 63.675 92.79094Q63.675 93.60344 63.315624 94.306564Q62.971874 94.994064 62.3625 95.369064Q61.753124 95.72844 60.9875 95.72844Q59.659374 95.72844 58.83125 94.75969Q58.003124 93.79094 58.003124 91.57219Q58.003124 89.07219 58.925 87.94719Q59.721874 86.962814 61.08125 86.962814Q62.096874 86.962814 62.7375 87.54094Q63.39375 88.10344 63.51875 89.10344ZM59.221874 92.806564Q59.221874 93.35344 59.440624 93.85344Q59.675 94.337814 60.08125 94.60344Q60.503124 94.869064 60.971874 94.869064Q61.628124 94.869064 62.1125 94.337814Q62.596874 93.79094 62.596874 92.869064Q62.596874 91.97844 62.1125 91.462814Q61.64375 90.94719 60.925 90.94719Q60.20625 90.94719 59.70625 91.462814Q59.221874 91.97844 59.221874 92.806564ZM65.05 91.35344Q65.05 89.82219 65.3625 88.900314Q65.675 87.962814 66.28438 87.462814Q66.90938 86.962814 67.84688 86.962814Q68.53438 86.962814 69.05 87.244064Q69.58125 87.525314 69.925 88.056564Q70.26875 88.57219 70.45625 89.32219Q70.64375 90.07219 70.64375 91.35344Q70.64375 92.869064 70.33125 93.79094Q70.03438 94.712814 69.40938 95.22844Q68.8 95.72844 67.84688 95.72844Q66.6125 95.72844 65.89375 94.837814Q65.05 93.775314 65.05 91.35344ZM66.12813 91.35344Q66.12813 93.462814 66.62813 94.16594Q67.12813 94.869064 67.84688 94.869064Q68.58125 94.869064 69.06563 94.16594Q69.56563 93.462814 69.56563 91.35344Q69.56563 89.22844 69.06563 88.54094Q68.58125 87.837814 67.83125 87.837814Q67.1125 87.837814 66.675 88.44719Q66.12813 89.22844 66.12813 91.35344Z" fill-rule="nonzero"/><path fill="#000000" d="M59.675 24.89375Q59.01875 24.64375 58.690624 24.20625Q58.378124 23.753124 58.378124 23.14375Q58.378124 22.20625 59.05 21.565624Q59.7375 20.925 60.846874 20.925Q61.971874 20.925 62.659374 21.58125Q63.346874 22.2375 63.346874 23.175Q63.346874 23.76875 63.034374 24.20625Q62.721874 24.64375 62.08125 24.89375Q62.878124 25.14375 63.284374 25.721874Q63.690624 26.3 63.690624 27.096874Q63.690624 28.190624 62.909374 28.940624Q62.14375 29.690624 60.8625 29.690624Q59.596874 29.690624 58.815624 28.940624Q58.034374 28.190624 58.034374 27.065624Q58.034374 26.221874 58.45625 25.659374Q58.89375 25.096874 59.675 24.89375ZM59.45625 23.096874Q59.45625 23.70625 59.846874 24.096874Q60.253124 24.4875 60.878124 24.4875Q61.4875 24.4875 61.878124 24.1125Q62.26875 23.721874 62.26875 23.159374Q62.26875 22.58125 61.8625 22.190624Q61.45625 21.784374 60.8625 21.784374Q60.253124 21.784374 59.846874 22.175Q59.45625 22.565624 59.45625 23.096874ZM59.128124 27.065624Q59.128124 27.51875 59.33125 27.940624Q59.55 28.3625 59.971874 28.596874Q60.39375 28.83125 60.878124 28.83125Q61.628124 28.83125 62.1125 28.346874Q62.6125 27.8625 62.6125 27.1125Q62.6125 26.346874 62.1125 25.846874Q61.6125 25.346874 60.846874 25.346874Q60.096874 25.346874 59.6125 25.846874Q59.128124 26.33125 59.128124 27.065624ZM65.05 25.315624Q65.05 23.784374 65.3625 22.8625Q65.675 21.925 66.28438 21.425Q66.90938 20.925 67.84688 20.925Q68.53438 20.925 69.05 21.20625Q69.58125 21.4875 69.925 22.01875Q70.26875 22.534374 70.45625 23.284374Q70.64375 24.034374 70.64375 25.315624Q70.64375 26.83125 70.33125 27.753124Q70.03438 28.675 69.40938 29.190624Q68.8 29.690624 67.84688 29.690624Q66.6125 29.690624 65.89375 28.8Q65.05 27.7375 65.05 25.315624ZM66.12813 25.315624Q66.12813 27.425 66.62813 28.128124Q67.12813 28.83125 67.84688 28.83125Q68.58125 28.83125 69.06563 28.128124Q69.56563 27.425 69.56563 25.315624Q69.56563 23.190624 69.06563 22.503124Q68.58125 21.8 67.83125 21.8Q67.1125 21.8 66.675 22.409374Q66.12813 23.190624 66.12813 25.315624Z" fill-rule="nonzero"/><path fill="#000000" d="M550.8283 318.2845L551.5465 319.00266L547.5248 323.02432Q547.25964 322.75916 547.09393 322.41666Q546.8398 321.85318 546.7735 321.12396Q546.71826 320.3837 546.8398 319.2236Q547.0166 317.41165 546.884 316.59406Q546.76245 315.7654 546.3426 315.34558Q545.9007 314.90363 545.282 314.92572Q544.65216 314.93677 544.144 315.445Q543.6026 315.9864 543.6026 316.6272Q543.6026 317.26804 544.1661 317.8536L543.32635 318.5386Q542.54193 317.5995 542.6082 316.6493Q542.6745 315.67703 543.54736 314.8042Q544.42017 313.93137 545.41455 313.90927Q546.40894 313.88718 547.1271 314.60532Q547.49164 314.96994 547.69055 315.47815Q547.8894 315.9643 547.9336 316.7156Q547.9778 317.4448 547.85626 318.91425Q547.7458 320.1517 547.75684 320.5605Q547.7679 320.94717 547.8452 321.2676L550.8283 318.2845ZM549.57983 314.981Q548.4971 313.89822 548.06616 313.0254Q547.62427 312.1415 547.7016 311.35706Q547.79 310.56155 548.4529 309.89865Q548.939 309.4125 549.5025 309.2468Q550.077 309.07 550.69574 309.20258Q551.3034 309.32413 551.9663 309.72186Q552.6292 310.11963 553.5352 311.0256Q554.60693 312.0973 555.03784 312.97015Q555.47974 313.83194 555.4024 314.63846Q555.3251 315.4229 554.6511 316.09686Q553.77826 316.96973 552.64026 316.84818Q551.29236 316.6935 549.57983 314.981ZM550.34216 314.21863Q551.83374 315.71017 552.6845 315.85382Q553.5352 315.99744 554.04346 315.4892Q554.56274 314.96994 554.4081 314.13025Q554.2644 313.2795 552.7729 311.78793Q551.27026 310.28534 550.4306 310.15277Q549.5909 309.99808 549.06055 310.5284Q548.5523 311.03665 548.6738 311.7769Q548.8396 312.71603 550.34216 314.21863ZM560.72784 308.38498L561.446 309.10315L557.4243 313.12482Q557.1591 312.85965 556.9934 312.51715Q556.7393 311.95367 556.673 311.22446Q556.61774 310.48422 556.7393 309.32413Q556.9161 307.51215 556.7835 306.69458Q556.6619 305.86594 556.2421 305.44608Q555.8002 305.00415 555.18146 305.02625Q554.5517 305.0373 554.04346 305.54553Q553.5021 306.08688 553.5021 306.72772Q553.5021 307.36853 554.06555 307.9541L553.2258 308.6391Q552.4414 307.69998 552.5077 306.74982Q552.574 305.77753 553.44684 304.9047Q554.31964 304.03186 555.314 304.00977Q556.3084 303.98767 557.02655 304.70584Q557.3912 305.07043 557.59 305.57867Q557.7889 306.0648 557.8331 306.8161Q557.8773 307.54532 557.75574 309.01477Q557.64526 310.2522 557.6563 310.66098Q557.66736 311.0477 557.7447 311.3681L560.72784 308.38498ZM559.4793 305.08148Q558.3966 303.99872 557.9657 303.1259Q557.52374 302.242 557.6011 301.45755Q557.68945 300.66205 558.35236 299.99915Q558.8385 299.513 559.402 299.3473Q559.9765 299.1705 560.5952 299.3031Q561.2029 299.42462 561.86584 299.8224Q562.52875 300.22012 563.4347 301.1261Q564.5064 302.1978 564.9373 303.07065Q565.3793 303.93243 565.30194 304.73898Q565.22455 305.5234 564.5506 306.1974Q563.6778 307.07022 562.5398 306.94867Q561.19183 306.794 559.4793 305.08148ZM560.2417 304.31912Q561.7332 305.81067 562.584 305.9543Q563.4347 306.09793 563.94293 305.58972Q564.4622 305.07043 564.30756 304.23074Q564.16394 303.38 562.67236 301.88846Q561.16974 300.38583 560.3301 300.25327Q559.49036 300.09857 558.96 300.6289Q558.45184 301.13715 558.57336 301.8774Q558.7391 302.81653 560.2417 304.31912Z" fill-rule="nonzero"/><path fill="#000000" d="M518.001 318.28445L518.7191 319.00262L514.69745 323.0243Q514.4323 322.75912 514.2666 322.41663Q514.01245 321.85315 513.94617 321.12393Q513.8909 320.3837 514.01245 319.2236Q514.1892 317.41162 514.05664 316.59406Q513.9351 315.7654 513.51526 315.34555Q513.0733 314.90363 512.4546 314.92572Q511.82486 314.93677 511.31662 315.445Q510.77524 315.98636 510.77524 316.6272Q510.77524 317.268 511.3387 317.85358L510.49902 318.53857Q509.71457 317.59946 509.78085 316.6493Q509.84717 315.677 510.72 314.80417Q511.59283 313.93134 512.5872 313.90924Q513.58154 313.88715 514.29974 314.60532Q514.6643 314.9699 514.8632 315.47815Q515.0621 315.96426 515.10626 316.71558Q515.15045 317.4448 515.02893 318.91425Q514.91846 320.15167 514.9295 320.56046Q514.94055 320.94717 515.0179 321.26758L518.001 318.28445ZM516.7525 314.98096Q515.66974 313.8982 515.23883 313.02536Q514.79694 312.14148 514.87427 311.35703Q514.96265 310.56152 515.62555 309.89862Q516.1117 309.41248 516.6752 309.24677Q517.2497 309.06998 517.8684 309.20258Q518.4761 309.3241 519.139 309.72183Q519.8019 310.1196 520.7079 311.02557Q521.7796 312.0973 522.21045 312.97012Q522.6524 313.8319 522.5751 314.63846Q522.49774 315.42288 521.8238 316.09686Q520.9509 316.9697 519.8129 316.84814Q518.465 316.69348 516.7525 314.98096ZM517.51483 314.2186Q519.0064 315.71014 519.8571 315.8538Q520.7079 315.9974 521.2161 315.4892Q521.7354 314.9699 521.5807 314.13022Q521.4371 313.27948 519.94556 311.78793Q518.44293 310.2853 517.6032 310.15274Q516.76355 309.99805 516.2332 310.52838Q515.725 311.03662 515.8465 311.7769Q516.01227 312.716 517.51483 314.2186ZM527.50275 310.21902L526.76245 310.9593L522.0116 306.2084Q521.9895 306.73874 521.81274 307.44586Q521.6359 308.13086 521.415 308.5949L520.69684 307.87674Q521.0172 306.95972 521.07245 306.08688Q521.12775 305.19196 520.92883 304.59534L521.40393 304.12024L527.50275 310.21902ZM528.35345 306.56195L529.0053 305.77753Q529.6019 306.19736 530.0881 306.17526Q530.5742 306.13107 530.972 305.73334Q531.31445 305.3908 531.41394 304.98203Q531.51337 304.55112 531.425 304.1313Q531.3255 303.70038 530.9941 303.14795Q530.65155 302.58447 530.1875 302.12045Q530.13226 302.06522 530.03284 301.96576Q530.1654 302.54028 530.01074 303.159Q529.84503 303.7667 529.392 304.21967Q528.6297 304.98203 527.56903 304.95993Q526.4973 304.9268 525.60236 304.03186Q524.6743 303.10376 524.6522 301.9989Q524.6412 300.88303 525.45874 300.06543Q526.0443 299.47986 526.8509 299.31412Q527.66846 299.13733 528.5192 299.47986Q529.3589 299.8113 530.4748 300.92722Q531.6349 302.0873 532.07684 303.03748Q532.5188 303.96555 532.3751 304.83838Q532.2315 305.68912 531.5686 306.35205Q530.85046 307.0702 530.01074 307.13647Q529.16003 307.19174 528.35345 306.56195ZM528.7181 300.82776Q528.0773 300.18695 527.3591 300.1538Q526.652 300.10962 526.16583 300.59576Q525.6687 301.09293 525.70184 301.87738Q525.735 302.63974 526.38684 303.2916Q526.96136 303.86612 527.6795 303.87717Q528.39764 303.8882 528.9059 303.37997Q529.4252 302.8607 529.392 302.16464Q529.3589 301.4686 528.7181 300.82776Z" fill-rule="nonzero"/><path fill="#000000" d="M485.1736 318.28445L485.89178 319.00262L481.87012 323.0243Q481.60495 322.75912 481.4392 322.41663Q481.1851 321.85315 481.1188 321.12393Q481.06357 320.3837 481.1851 319.2236Q481.36188 317.41162 481.22928 316.59406Q481.10776 315.7654 480.68793 315.34555Q480.24597 314.90363 479.62726 314.92572Q478.9975 314.93677 478.48926 315.445Q477.94788 315.98636 477.94788 316.6272Q477.94788 317.268 478.51135 317.85358L477.67166 318.53857Q476.8872 317.59946 476.9535 316.6493Q477.0198 315.677 477.89264 314.80417Q478.76547 313.93134 479.75983 313.90924Q480.7542 313.88715 481.47235 314.60532Q481.83698 314.9699 482.03583 315.47815Q482.2347 315.96426 482.2789 316.71558Q482.3231 317.4448 482.20157 318.91425Q482.09106 320.15167 482.1021 320.56046Q482.1132 320.94717 482.19052 321.26758L485.1736 318.28445ZM483.92514 314.98096Q482.84238 313.8982 482.4115 313.02536Q481.96954 312.14148 482.04688 311.35703Q482.13528 310.56152 482.7982 309.89862Q483.28433 309.41248 483.8478 309.24677Q484.42233 309.06998 485.04105 309.20258Q485.6487 309.3241 486.3116 309.72183Q486.97455 310.1196 487.88052 311.02557Q488.9522 312.0973 489.38312 312.97012Q489.82507 313.8319 489.7477 314.63846Q489.67038 315.42288 488.99643 316.09686Q488.1236 316.9697 486.9856 316.84814Q485.63766 316.69348 483.92514 314.98096ZM484.6875 314.2186Q486.17905 315.71014 487.0298 315.8538Q487.88052 315.9974 488.38873 315.4892Q488.90802 314.9699 488.75336 314.13022Q488.6097 313.27948 487.11816 311.78793Q485.61557 310.2853 484.77588 310.15274Q483.9362 309.99805 483.40585 310.52838Q482.8976 311.03662 483.01917 311.7769Q483.18488 312.716 484.6875 314.2186ZM494.67538 310.21902L493.93515 310.95926L489.18427 306.20837Q489.16214 306.73874 488.98538 307.44586Q488.8086 308.13086 488.58762 308.5949L487.86948 307.87674Q488.18988 306.95972 488.24512 306.08688Q488.30038 305.19193 488.1015 304.5953L488.5766 304.1202L494.67538 310.21902ZM494.67538 303.63406Q494.03458 303.92133 493.4932 303.844Q492.9518 303.74457 492.52094 303.31366Q491.858 302.65076 491.8801 301.7227Q491.91327 300.78354 492.6977 299.9991Q493.4932 299.2036 494.44336 299.18152Q495.39355 299.15942 496.05646 299.82233Q496.4763 300.2422 496.5647 300.7725Q496.65308 301.30283 496.37686 301.93262Q497.11713 301.5459 497.81317 301.66745Q498.50925 301.78897 499.07272 302.35245Q499.8461 303.12585 499.824 304.2086Q499.81296 305.2803 498.90698 306.18628Q498.01205 307.08124 496.9293 307.10333Q495.84653 307.12543 495.05106 306.32993Q494.4544 305.7333 494.35498 305.03723Q494.2666 304.33014 494.67538 303.63406ZM493.25012 302.5182Q493.68103 302.94907 494.23346 302.94907Q494.79694 302.93802 495.23886 302.49606Q495.66977 302.0652 495.68082 301.5238Q495.68082 300.97137 495.28305 300.57364Q494.87427 300.16483 494.3108 300.17587Q493.73627 300.17587 493.3164 300.59573Q492.88553 301.0266 492.87448 301.5901Q492.87448 302.14252 493.25012 302.5182ZM495.82443 305.55652Q496.14484 305.87692 496.5868 306.03162Q497.03976 306.17523 497.5038 306.04266Q497.96786 305.91006 498.31036 305.56757Q498.8407 305.03723 498.8407 304.35223Q498.85175 303.6562 498.3214 303.12585Q497.78003 302.58447 497.07294 302.58447Q496.3658 302.58447 495.82443 303.12585Q495.2941 303.6562 495.30515 304.35223Q495.30515 305.03723 495.82443 305.55652Z" fill-rule="nonzero"/><path fill="#000000" d="M452.34625 318.28445L453.06442 319.00262L449.04276 323.0243Q448.7776 322.75912 448.61185 322.41663Q448.35773 321.85315 448.29144 321.12393Q448.2362 320.3837 448.35773 319.2236Q448.53452 317.41162 448.40192 316.59406Q448.2804 315.7654 447.86057 315.34555Q447.4186 314.90363 446.7999 314.92572Q446.17014 314.93677 445.6619 315.445Q445.1205 315.98636 445.1205 316.6272Q445.1205 317.268 445.684 317.85358L444.8443 318.53857Q444.05984 317.59946 444.12613 316.6493Q444.19244 315.677 445.06528 314.80417Q445.9381 313.93134 446.93246 313.90924Q447.92685 313.88715 448.645 314.60532Q449.0096 314.9699 449.20847 315.47815Q449.40735 315.96426 449.45154 316.71558Q449.49573 317.4448 449.3742 318.91425Q449.2637 320.15167 449.27475 320.56046Q449.28583 320.94717 449.36316 321.26758L452.34625 318.28445ZM451.09778 314.98096Q450.015 313.8982 449.58414 313.02536Q449.14218 312.14148 449.2195 311.35703Q449.30792 310.56152 449.97083 309.89862Q450.45697 309.41248 451.02045 309.24677Q451.59497 309.06998 452.21368 309.20258Q452.82135 309.3241 453.48425 309.72183Q454.1472 310.1196 455.05316 311.02557Q456.12485 312.0973 456.55576 312.97012Q456.9977 313.8319 456.92035 314.63846Q456.84302 315.42288 456.16907 316.09686Q455.29623 316.9697 454.15823 316.84814Q452.8103 316.69348 451.09778 314.98096ZM451.86014 314.2186Q453.35168 315.71014 454.20242 315.8538Q455.05316 315.9974 455.56137 315.4892Q456.08066 314.9699 455.926 314.13022Q455.78235 313.27948 454.2908 311.78793Q452.7882 310.2853 451.94852 310.15274Q451.10883 309.99805 450.5785 310.52838Q450.07025 311.03662 450.1918 311.7769Q450.3575 312.716 451.86014 314.2186ZM461.848 310.21902L461.10776 310.9593L456.35687 306.2084Q456.33478 306.73874 456.15802 307.44586Q455.98123 308.13086 455.76025 308.5949L455.0421 307.87674Q455.36252 306.95972 455.41776 306.08688Q455.473 305.19196 455.2741 304.59534L455.7492 304.12024L461.848 310.21902ZM458.75443 302.7502L458.03625 302.03207L461.96954 298.0988L462.5551 298.68436Q462.5993 299.8776 463.0523 301.47964Q463.50528 303.05957 464.2787 304.4517Q464.80902 305.44608 465.65976 306.4073L464.88635 307.1807Q464.17926 306.45148 463.42795 305.16986Q462.68768 303.87717 462.24576 302.44086Q461.81485 300.9935 461.73752 299.76712L458.75443 302.7502Z" fill-rule="nonzero"/><path fill="#000000" d="M419.5189 318.28445L420.23706 319.00262L416.2154 323.0243Q415.95023 322.75912 415.7845 322.41663Q415.53036 321.85315 415.46408 321.12393Q415.40884 320.3837 415.53036 319.2236Q415.70715 317.41162 415.57455 316.59406Q415.45303 315.7654 415.0332 315.34555Q414.59125 314.90363 413.97253 314.92572Q413.34277 314.93677 412.83453 315.445Q412.29315 315.98636 412.29315 316.6272Q412.29315 317.268 412.85663 317.85358L412.01694 318.53857Q411.23248 317.59946 411.29877 316.6493Q411.36508 315.677 412.2379 314.80417Q413.11075 313.93134 414.1051 313.90924Q415.0995 313.88715 415.81763 314.60532Q416.18225 314.9699 416.3811 315.47815Q416.58 315.96426 416.62418 316.71558Q416.66837 317.4448 416.54684 318.91425Q416.43634 320.15167 416.4474 320.56046Q416.45847 320.94717 416.5358 321.26758L419.5189 318.28445ZM418.27042 314.98096Q417.18765 313.8982 416.75677 313.02536Q416.31482 312.14148 416.39215 311.35703Q416.48056 310.56152 417.14346 309.89862Q417.6296 309.41248 418.19308 309.24677Q418.7676 309.06998 419.38632 309.20258Q419.994 309.3241 420.6569 309.72186Q421.31982 310.1196 422.2258 311.02557Q423.2975 312.0973 423.7284 312.97012Q424.17035 313.8319 424.093 314.63846Q424.01566 315.42288 423.3417 316.09686Q422.46887 316.9697 421.33087 316.84814Q419.98294 316.69348 418.27042 314.98096ZM419.03278 314.2186Q420.52432 315.71014 421.37506 315.8538Q422.2258 315.9974 422.734 315.4892Q423.2533 314.9699 423.09863 314.13022Q422.955 313.27948 421.46344 311.78793Q419.96085 310.2853 419.12115 310.15274Q418.28146 309.99805 417.75113 310.52838Q417.2429 311.03662 417.36444 311.7769Q417.53015 312.716 419.03278 314.2186ZM429.02063 310.21902L428.2804 310.9593L423.5295 306.2084Q423.50742 306.73874 423.33066 307.44586Q423.15387 308.13086 422.9329 308.5949L422.21475 307.87674Q422.53516 306.95972 422.5904 306.08688Q422.64563 305.19196 422.44675 304.59534L422.92184 304.12024L429.02063 310.21902ZM430.4459 299.62347L429.7609 300.41898Q429.2195 300.07648 428.84387 300.05438Q428.2141 300.04333 427.77216 300.48526Q427.4186 300.8388 427.34128 301.3139Q427.26392 301.92157 427.55118 302.6287Q427.83844 303.3137 428.73337 304.2307Q428.58975 303.55676 428.7776 302.9712Q428.97644 302.37457 429.40735 301.94366Q430.14758 301.20343 431.2193 301.23657Q432.30206 301.25867 433.16385 302.12045Q433.73837 302.69498 433.98145 303.4463Q434.22452 304.17548 434.05878 304.87155Q433.88202 305.55655 433.34064 306.09793Q432.4015 307.03705 431.13092 306.93762Q429.86032 306.83817 428.29144 305.2693Q426.52368 303.50153 426.38004 302.05417Q426.24747 300.79462 427.20868 299.8334Q427.92685 299.11523 428.78864 299.07104Q429.65042 299.00476 430.4459 299.62347ZM430.02606 305.28033Q430.41275 305.66702 430.921 305.8659Q431.42923 306.0427 431.90433 305.94324Q432.39044 305.83276 432.7219 305.5013Q433.18594 305.03726 433.1528 304.31912Q433.1086 303.5899 432.45676 302.93805Q431.82697 302.3083 431.11987 302.28616Q430.4238 302.25302 429.9156 302.76126Q429.40735 303.2695 429.4184 303.98764Q429.4405 304.69476 430.02606 305.28033Z" fill-rule="nonzero"/><path fill="#000000" d="M386.69153 318.28445L387.4097 319.00262L383.38803 323.0243Q383.12286 322.75912 382.95712 322.41663Q382.703 321.85315 382.63672 321.12393Q382.58148 320.3837 382.703 319.2236Q382.8798 317.41162 382.7472 316.59406Q382.62567 315.7654 382.20584 315.34555Q381.7639 314.90363 381.14517 314.92572Q380.5154 314.93677 380.00717 315.445Q379.4658 315.98636 379.4658 316.6272Q379.4658 317.268 380.02927 317.85358L379.18958 318.53857Q378.40512 317.59946 378.4714 316.6493Q378.53772 315.677 379.41055 314.80417Q380.2834 313.93134 381.27774 313.90924Q382.27213 313.88715 382.99026 314.60532Q383.3549 314.9699 383.55374 315.47815Q383.75262 315.96426 383.7968 316.71558Q383.841 317.4448 383.71948 318.91425Q383.60898 320.15167 383.62003 320.56046Q383.6311 320.94717 383.70844 321.26758L386.69153 318.28445ZM385.44305 314.98096Q384.3603 313.8982 383.9294 313.02536Q383.48746 312.14148 383.5648 311.35703Q383.6532 310.56152 384.3161 309.89862Q384.80225 309.41248 385.36572 309.24677Q385.94025 309.06998 386.55896 309.20258Q387.16663 309.3241 387.82953 309.72186Q388.49246 310.1196 389.39844 311.02557Q390.47012 312.0973 390.90103 312.97012Q391.343 313.8319 391.26562 314.63846Q391.1883 315.42288 390.51434 316.09686Q389.6415 316.9697 388.5035 316.84814Q387.15558 316.69348 385.44305 314.98096ZM386.2054 314.2186Q387.69696 315.71014 388.5477 315.8538Q389.39844 315.9974 389.90665 315.4892Q390.42593 314.9699 390.27127 314.13022Q390.12762 313.27948 388.63608 311.78793Q387.13348 310.2853 386.2938 310.15274Q385.4541 309.99805 384.92377 310.52838Q384.41553 311.03662 384.53708 311.7769Q384.7028 312.716 386.2054 314.2186ZM396.1933 310.21902L395.45303 310.9593L390.70215 306.2084Q390.68005 306.73874 390.5033 307.44586Q390.3265 308.13086 390.10553 308.5949L389.3874 307.87674Q389.7078 306.95972 389.76303 306.08688Q389.81827 305.19196 389.6194 304.59534L390.09448 304.12024L396.1933 310.21902ZM396.7457 306.48462L397.46387 305.63388Q398.12677 306.12003 398.7234 306.09793Q399.33105 306.0648 399.78406 305.6118Q400.3144 305.08145 400.28125 304.29703Q400.2481 303.51257 399.58517 302.84964Q398.94437 302.20883 398.21518 302.20883Q397.48596 302.18674 396.9004 302.7723Q396.54684 303.12585 396.41425 303.5899Q396.29272 304.0429 396.3811 304.46274L395.59665 305.0704L393.06656 301.36914L396.09384 298.34186L396.80096 299.04895L394.37027 301.47964L395.68506 303.43524Q395.83972 302.50714 396.43634 301.91052Q397.23184 301.11502 398.32565 301.12607Q399.4305 301.12607 400.30334 301.9989Q401.12094 302.8165 401.2535 303.89926Q401.39716 305.21405 400.39172 306.21945Q399.56308 307.0481 398.56873 307.11438Q397.5854 307.16965 396.7457 306.48462Z" fill-rule="nonzero"/><path fill="#000000" d="M353.86417 318.28445L354.58234 319.00262L350.56067 323.0243Q350.2955 322.75912 350.12976 322.41663Q349.87564 321.85315 349.80936 321.12393Q349.75412 320.3837 349.87564 319.2236Q350.05243 317.41162 349.91983 316.59406Q349.7983 315.7654 349.37848 315.34555Q348.93652 314.90363 348.3178 314.92572Q347.68805 314.93677 347.1798 315.445Q346.63843 315.98636 346.63843 316.6272Q346.63843 317.268 347.2019 317.85358L346.3622 318.53857Q345.57776 317.59946 345.64404 316.6493Q345.71036 315.677 346.5832 314.80417Q347.45602 313.93134 348.45038 313.90924Q349.44476 313.88715 350.1629 314.60532Q350.52753 314.9699 350.72638 315.47815Q350.92526 315.96426 350.96945 316.71558Q351.01364 317.4448 350.89212 318.91425Q350.78162 320.15167 350.79266 320.56046Q350.80374 320.94717 350.88107 321.26758L353.86417 318.28445ZM352.6157 314.98096Q351.53293 313.8982 351.10205 313.02536Q350.6601 312.14148 350.73743 311.35703Q350.82584 310.56152 351.48874 309.89862Q351.97488 309.41248 352.53836 309.24677Q353.11288 309.06998 353.7316 309.20258Q354.33926 309.3241 355.00217 309.72186Q355.6651 310.1196 356.57108 311.02557Q357.64276 312.0973 358.07367 312.97012Q358.51562 313.8319 358.43826 314.63846Q358.36093 315.42288 357.68698 316.09686Q356.81415 316.9697 355.67615 316.84814Q354.32822 316.69348 352.6157 314.98096ZM353.37805 314.2186Q354.8696 315.71014 355.72034 315.8538Q356.57108 315.9974 357.0793 315.4892Q357.59857 314.9699 357.4439 314.13022Q357.30026 313.27948 355.80872 311.78793Q354.30612 310.2853 353.46643 310.15274Q352.62674 309.99805 352.0964 310.52838Q351.58817 311.03662 351.70972 311.7769Q351.87543 312.716 353.37805 314.2186ZM363.36594 310.21902L362.62567 310.9593L357.8748 306.2084Q357.8527 306.73874 357.67593 307.44586Q357.49915 308.13086 357.27817 308.5949L356.56003 307.87674Q356.88043 306.95972 356.93567 306.08688Q356.9909 305.19196 356.79202 304.59534L357.26712 304.12024L363.36594 310.21902ZM367.8958 305.68912L366.4374 304.2307L363.80786 306.8603L363.12286 306.17526L361.96277 299.4688L362.57043 298.86115L366.5037 302.7944L367.3213 301.9768L368.00632 302.66183L367.18872 303.47943L368.64713 304.93784L367.8958 305.68912ZM365.7524 303.54572L363.0234 300.8167L363.85205 305.44608L365.7524 303.54572Z" fill-rule="nonzero"/><path fill="#000000" d="M321.0368 318.2845L321.75497 319.00262L317.7333 323.0243Q317.46814 322.75912 317.3024 322.41663Q317.04828 321.85315 316.982 321.12393Q316.92676 320.3837 317.04828 319.2236Q317.22507 317.41162 317.09247 316.59406Q316.97095 315.7654 316.55112 315.34555Q316.10916 314.90363 315.49045 314.92572Q314.8607 314.93677 314.35245 315.445Q313.81107 315.98636 313.81107 316.6272Q313.81107 317.268 314.37454 317.85358L313.53485 318.53857Q312.7504 317.59946 312.81668 316.6493Q312.883 315.677 313.75583 314.80417Q314.62866 313.93134 315.62302 313.90924Q316.6174 313.88715 317.33554 314.60532Q317.70016 314.9699 317.89902 315.47815Q318.0979 315.96426 318.1421 316.71558Q318.18628 317.4448 318.06476 318.91425Q317.95425 320.15167 317.96533 320.56046Q317.97638 320.94717 318.0537 321.26758L321.0368 318.2845ZM319.78833 314.98096Q318.70557 313.8982 318.2747 313.02536Q317.83273 312.14148 317.91006 311.35703Q317.99847 310.56152 318.66138 309.89862Q319.14752 309.41248 319.711 309.24677Q320.28552 309.06998 320.90424 309.20258Q321.5119 309.3241 322.1748 309.72186Q322.83774 310.1196 323.7437 311.02557Q324.8154 312.0973 325.2463 312.97012Q325.68826 313.8319 325.6109 314.63846Q325.53357 315.42288 324.85962 316.09686Q323.9868 316.9697 322.8488 316.84814Q321.50085 316.69348 319.78833 314.98096ZM320.5507 314.2186Q322.04224 315.71014 322.89297 315.8538Q323.7437 315.99744 324.25195 315.4892Q324.7712 314.9699 324.61655 314.13022Q324.4729 313.27948 322.98135 311.78793Q321.47876 310.28534 320.63907 310.15274Q319.79938 309.99808 319.26904 310.52838Q318.7608 311.03662 318.88235 311.7769Q319.04807 312.716 320.5507 314.2186ZM330.53857 310.21902L329.7983 310.9593L325.04742 306.2084Q325.02533 306.73874 324.84857 307.44586Q324.67178 308.13086 324.4508 308.5949L323.73267 307.87674Q324.05307 306.95972 324.1083 306.08688Q324.16354 305.19196 323.9647 304.59534L324.43976 304.12024L330.53857 310.21902ZM331.07993 306.47357L331.7318 305.62283Q332.4831 306.13107 333.0797 306.10898Q333.66528 306.07584 334.10724 305.63388Q334.63757 305.10355 334.63757 304.37436Q334.63757 303.64514 334.0962 303.10376Q333.58795 302.59555 332.914 302.6066Q332.24002 302.59555 331.72076 303.1148Q331.51083 303.32474 331.2788 303.73355L330.70428 302.98224Q330.79266 302.91595 330.83688 302.87177Q331.31195 302.39667 331.44455 301.77795Q331.57712 301.13712 331.05783 300.61786Q330.64905 300.20905 330.10767 300.2201Q329.55524 300.2201 329.1133 300.66205Q328.6824 301.09293 328.6603 301.66745Q328.64926 302.23093 329.1133 302.84964L328.2294 303.46838Q327.62173 302.59555 327.6991 301.7006Q327.76538 300.79462 328.48352 300.07648Q328.9807 299.57928 329.62152 299.3804Q330.2513 299.1705 330.83688 299.31412Q331.42245 299.45776 331.8423 299.8776Q332.22897 300.26428 332.35052 300.80566Q332.461 301.336 332.24002 301.93262Q332.8919 301.52383 333.58795 301.62326Q334.27298 301.71167 334.8696 302.3083Q335.66507 303.10376 335.63193 304.24176Q335.60983 305.3687 334.72595 306.2526Q333.93045 307.0481 332.92505 307.10333Q331.90857 307.14755 331.07993 306.47357Z" fill-rule="nonzero"/><path fill="#000000" d="M288.20944 318.2845L288.9276 319.00262L284.90594 323.0243Q284.64078 322.75912 284.47504 322.41663Q284.22092 321.85315 284.15463 321.12393Q284.0994 320.3837 284.22092 319.2236Q284.3977 317.41162 284.2651 316.59406Q284.1436 315.7654 283.72375 315.34555Q283.2818 314.90363 282.6631 314.92572Q282.03333 314.93677 281.5251 315.445Q280.9837 315.98636 280.9837 316.6272Q280.9837 317.268 281.54718 317.85358L280.7075 318.53857Q279.92303 317.59946 279.98932 316.6493Q280.05563 315.677 280.92847 314.80417Q281.8013 313.93134 282.79565 313.90924Q283.79004 313.88715 284.50818 314.60532Q284.8728 314.9699 285.07166 315.47815Q285.27054 315.96426 285.31473 316.71558Q285.35892 317.4448 285.2374 318.91425Q285.1269 320.15167 285.13797 320.56046Q285.14902 320.94717 285.22635 321.26758L288.20944 318.2845ZM286.96097 314.98096Q285.8782 313.8982 285.44733 313.02536Q285.00537 312.14148 285.0827 311.35703Q285.1711 310.56152 285.834 309.89862Q286.32016 309.41248 286.88364 309.24677Q287.45816 309.06998 288.07687 309.20258Q288.68454 309.3241 289.34744 309.72186Q290.01038 310.1196 290.91635 311.02557Q291.98804 312.0973 292.41895 312.97012Q292.8609 313.8319 292.78354 314.63846Q292.7062 315.4229 292.03226 316.09686Q291.15942 316.9697 290.02142 316.84814Q288.6735 316.69348 286.96097 314.98096ZM287.72333 314.2186Q289.21487 315.71017 290.0656 315.8538Q290.91635 315.99744 291.4246 315.4892Q291.94385 314.9699 291.78918 314.13022Q291.64554 313.27948 290.154 311.78793Q288.6514 310.28534 287.8117 310.15274Q286.97202 309.99808 286.44168 310.52838Q285.93344 311.03662 286.055 311.7769Q286.2207 312.716 287.72333 314.2186ZM297.7112 310.21902L296.97095 310.9593L292.22006 306.2084Q292.19797 306.73874 292.0212 307.44586Q291.84442 308.13086 291.62344 308.5949L290.9053 307.87674Q291.2257 306.95972 291.28094 306.08688Q291.33618 305.19196 291.13733 304.59534L291.6124 304.12024L297.7112 310.21902ZM303.0587 303.43524L303.77686 304.15338L299.7552 308.17505Q299.49002 307.90988 299.32428 307.56738Q299.07016 307.0039 299.00388 306.2747Q298.94864 305.53445 299.07016 304.37436Q299.24695 302.56238 299.11435 301.7448Q298.99283 300.91617 298.573 300.4963Q298.13104 300.05438 297.51233 300.07648Q296.88257 300.08752 296.37433 300.59576Q295.83295 301.13715 295.83295 301.77795Q295.83295 302.41876 296.39642 303.00433L295.55673 303.68933Q294.77228 302.7502 294.83856 301.80005Q294.90488 300.82776 295.7777 299.95493Q296.65054 299.0821 297.6449 299.06Q298.63928 299.0379 299.35742 299.75607Q299.72205 300.12067 299.9209 300.6289Q300.11978 301.11502 300.16397 301.86633Q300.20816 302.59555 300.08664 304.065Q299.97614 305.30243 299.98718 305.71124Q299.99826 306.09793 300.0756 306.41833L303.0587 303.43524Z" fill-rule="nonzero"/><path fill="#000000" d="M255.3821 318.2845L256.10025 319.00262L252.07857 323.0243Q251.81342 322.75912 251.64767 322.41663Q251.39357 321.85315 251.32727 321.12393Q251.27203 320.3837 251.39357 319.2236Q251.57034 317.41162 251.43776 316.59406Q251.31622 315.7654 250.89638 315.34555Q250.45444 314.90363 249.83572 314.92572Q249.20595 314.93677 248.69772 315.445Q248.15634 315.98636 248.15634 316.6272Q248.15634 317.268 248.71982 317.85358L247.88013 318.53857Q247.09569 317.59946 247.16197 316.6493Q247.22826 315.677 248.1011 314.80417Q248.97394 313.93134 249.9683 313.90924Q250.96268 313.88715 251.68083 314.60532Q252.04543 314.9699 252.24431 315.47815Q252.44318 315.96426 252.48737 316.71558Q252.53157 317.4448 252.41003 318.91425Q252.29955 320.15167 252.3106 320.56046Q252.32164 320.94717 252.39899 321.26758L255.3821 318.2845ZM254.1336 314.98096Q253.05084 313.8982 252.61995 313.02536Q252.17801 312.14148 252.25536 311.35703Q252.34373 310.56155 253.00665 309.89862Q253.49278 309.41248 254.05626 309.24677Q254.63078 309.06998 255.24951 309.20258Q255.85718 309.3241 256.52008 309.72186Q257.183 310.1196 258.089 311.02557Q259.16068 312.0973 259.59158 312.97012Q260.03354 313.8319 259.95618 314.63846Q259.87885 315.4229 259.2049 316.09686Q258.33206 316.9697 257.19406 316.84818Q255.84613 316.69348 254.1336 314.98096ZM254.89595 314.2186Q256.3875 315.71017 257.23825 315.8538Q258.089 315.99744 258.59723 315.4892Q259.1165 314.9699 258.96182 314.13022Q258.81818 313.27948 257.32663 311.78793Q255.82404 310.28534 254.98434 310.15274Q254.14465 309.99808 253.61432 310.52838Q253.1061 311.03662 253.22762 311.7769Q253.39336 312.716 254.89595 314.2186ZM264.88385 310.21902L264.1436 310.9593L259.3927 306.2084Q259.3706 306.73874 259.19385 307.44586Q259.01706 308.13086 258.79608 308.5949L258.07794 307.87674Q258.39835 306.95972 258.45358 306.08688Q258.50882 305.19196 258.30997 304.59534L258.78503 304.12024L264.88385 310.21902ZM269.8336 305.2693L269.09332 306.00955L264.34247 301.25867Q264.32037 301.789 264.1436 302.4961Q263.9668 303.18112 263.74585 303.64514L263.02768 302.927Q263.34808 302.00998 263.40332 301.13715Q263.4586 300.2422 263.2597 299.64557L263.73477 299.1705L269.8336 305.2693Z" fill-rule="nonzero"/><path fill="#000000" d="M222.55473 318.2845L223.27289 319.00262L219.2512 323.0243Q218.98605 322.75912 218.82031 322.41663Q218.56621 321.85315 218.49991 321.12393Q218.44467 320.3837 218.56621 319.2236Q218.74298 317.41162 218.6104 316.59406Q218.48886 315.7654 218.06902 315.34555Q217.62708 314.90363 217.00836 314.92572Q216.37859 314.93677 215.87036 315.445Q215.32898 315.9864 215.32898 316.6272Q215.32898 317.268 215.89246 317.85358L215.05276 318.53857Q214.26833 317.59946 214.33461 316.6493Q214.4009 315.677 215.27374 314.80417Q216.14658 313.93134 217.14095 313.90924Q218.13531 313.88715 218.85347 314.60532Q219.21806 314.9699 219.41695 315.47815Q219.61581 315.96426 219.66 316.71558Q219.70421 317.4448 219.58267 318.91425Q219.47218 320.15167 219.48323 320.5605Q219.49428 320.94717 219.57162 321.26758L222.55473 318.2845ZM221.30624 314.98096Q220.22348 313.8982 219.79259 313.02536Q219.35065 312.14148 219.428 311.35703Q219.51637 310.56155 220.17929 309.89862Q220.66542 309.41248 221.2289 309.24677Q221.80342 309.06998 222.42215 309.20258Q223.02982 309.3241 223.69272 309.72186Q224.35564 310.1196 225.26161 311.02557Q226.33333 312.0973 226.76422 312.97012Q227.20616 313.8319 227.12883 314.63846Q227.05148 315.4229 226.37752 316.09686Q225.50468 316.9697 224.36668 316.84818Q223.01877 316.69348 221.30624 314.98096ZM222.06859 314.2186Q223.56015 315.71017 224.41089 315.8538Q225.26161 315.99744 225.76985 315.4892Q226.28914 314.9699 226.13446 314.13022Q225.99083 313.27948 224.49927 311.78793Q222.99667 310.28534 222.15698 310.15274Q221.31729 309.99808 220.78696 310.52838Q220.27873 311.03662 220.40025 311.7769Q220.566 312.716 222.06859 314.2186ZM232.05647 310.21902L231.31622 310.9593L226.56535 306.2084Q226.54324 306.73874 226.36647 307.44586Q226.1897 308.13086 225.96872 308.5949L225.25056 307.87674Q225.57098 306.95972 225.62622 306.08688Q225.68146 305.19196 225.48259 304.59534L225.95767 304.12024L232.05647 310.21902ZM231.20573 305.08145Q230.12299 303.99872 229.69208 303.12585Q229.25014 302.24197 229.32748 301.45755Q229.41588 300.66205 230.07878 299.99915Q230.56493 299.513 231.1284 299.34726Q231.70293 299.1705 232.32164 299.30307Q232.9293 299.42462 233.59222 299.82236Q234.25513 300.2201 235.16112 301.12607Q236.23282 302.19778 236.66371 303.07062Q237.10565 303.9324 237.02832 304.73895Q236.95097 305.5234 236.27702 306.19736Q235.40417 307.0702 234.26619 306.94867Q232.91826 306.79398 231.20573 305.08145ZM231.96808 304.31912Q233.45964 305.81067 234.31038 305.95428Q235.16112 306.09793 235.66934 305.5897Q236.18863 305.0704 236.03395 304.2307Q235.89032 303.37997 234.39876 301.88843Q232.89616 300.38583 232.05647 300.25323Q231.21678 300.09857 230.68645 300.6289Q230.17822 301.13715 230.29976 301.87738Q230.46548 302.8165 231.96808 304.31912Z" fill-rule="nonzero"/><path fill="#000000" d="M189.72737 318.2845L190.44553 319.00262L186.42384 323.0243Q186.15869 322.75912 185.99295 322.41663Q185.73885 321.85315 185.67255 321.12393Q185.61731 320.3837 185.73885 319.2236Q185.91562 317.41165 185.78304 316.59406Q185.6615 315.7654 185.24165 315.34555Q184.79971 314.90363 184.181 314.92572Q183.55122 314.93677 183.043 315.445Q182.50162 315.9864 182.50162 316.6272Q182.50162 317.268 183.0651 317.85358L182.2254 318.53857Q181.44096 317.59946 181.50725 316.6493Q181.57353 315.677 182.44638 314.80417Q183.31921 313.93134 184.31358 313.90924Q185.30795 313.88715 186.02611 314.60532Q186.3907 314.9699 186.58958 315.47815Q186.78845 315.96426 186.83264 316.71558Q186.87685 317.4448 186.75531 318.91425Q186.64482 320.15167 186.65587 320.5605Q186.66692 320.94717 186.74426 321.26758L189.72737 318.2845ZM188.47888 314.98096Q187.39612 313.8982 186.96523 313.02536Q186.52328 312.14148 186.60063 311.35703Q186.68901 310.56155 187.35193 309.89862Q187.83806 309.4125 188.40154 309.24677Q188.97606 309.06998 189.59479 309.20258Q190.20245 309.3241 190.86537 309.72186Q191.52827 310.1196 192.43425 311.02557Q193.50597 312.0973 193.93686 312.97012Q194.3788 313.8319 194.30147 314.63846Q194.22412 315.4229 193.55016 316.09686Q192.67732 316.9697 191.53932 316.84818Q190.1914 316.69348 188.47888 314.98096ZM189.24123 314.2186Q190.73279 315.71017 191.58353 315.8538Q192.43425 315.99744 192.94249 315.4892Q193.46178 314.9699 193.3071 314.13022Q193.16347 313.27948 191.6719 311.78793Q190.16931 310.28534 189.32962 310.15274Q188.48993 309.99808 187.9596 310.52838Q187.45137 311.03662 187.57289 311.7769Q187.73863 312.716 189.24123 314.2186ZM193.42862 310.03122Q192.34587 308.94846 191.91498 308.07562Q191.47304 307.19174 191.55037 306.4073Q191.63876 305.6118 192.30168 304.94888Q192.78781 304.46274 193.35129 304.29703Q193.92581 304.12024 194.54453 304.2528Q195.1522 304.37436 195.81511 304.7721Q196.47803 305.16986 197.384 306.07584Q198.45572 307.14755 198.88661 308.0204Q199.32855 308.88217 199.2512 309.6887Q199.17387 310.47314 198.49991 311.14713Q197.62708 312.01996 196.48907 311.8984Q195.14114 311.74374 193.42862 310.03122ZM194.19098 309.26886Q195.68253 310.7604 196.53326 310.90405Q197.384 311.04767 197.89224 310.53943Q198.41151 310.02017 198.25684 309.18048Q198.1132 308.32974 196.62166 306.83817Q195.11905 305.33557 194.27936 305.203Q193.43968 305.0483 192.90935 305.57864Q192.40111 306.08688 192.52264 306.82712Q192.68837 307.76627 194.19098 309.26886ZM200.07985 306.56198L200.73172 305.77753Q201.32834 306.19736 201.81447 306.17526Q202.30061 306.13107 202.69835 305.73334Q203.04086 305.3908 203.14029 304.98203Q203.23973 304.55112 203.15135 304.1313Q203.05191 303.7004 202.72044 303.14798Q202.37794 302.5845 201.91391 302.12045Q201.85866 302.06522 201.75923 301.96576Q201.89182 302.54028 201.73714 303.15903Q201.5714 303.7667 201.11841 304.21967Q200.35606 304.98203 199.29541 304.95993Q198.2237 304.9268 197.32877 304.03186Q196.40068 303.10376 196.37859 301.99893Q196.36754 300.88303 197.18513 300.06543Q197.7707 299.47986 198.57724 299.31412Q199.39484 299.13736 200.24557 299.47986Q201.08527 299.8113 202.20117 300.92722Q203.36127 302.0873 203.8032 303.03748Q204.24515 303.96555 204.10152 304.83838Q203.95789 305.68912 203.29498 306.35205Q202.57681 307.0702 201.73714 307.1365Q200.8864 307.19174 200.07985 306.56198ZM200.44446 300.82776Q199.80363 300.18695 199.08548 300.1538Q198.37837 300.10962 197.89224 300.59576Q197.39505 301.09293 197.42819 301.87738Q197.46135 302.63974 198.1132 303.2916Q198.68773 303.86612 199.40588 303.87717Q200.12404 303.8882 200.63228 303.37997Q201.15157 302.86072 201.11841 302.16464Q201.08527 301.4686 200.44446 300.82776Z" fill-rule="nonzero"/><path fill="#000000" d="M156.90001 318.2845L157.61816 319.00262L153.59648 323.0243Q153.33133 322.75912 153.16559 322.41663Q152.91148 321.85315 152.84518 321.12396Q152.78995 320.3837 152.91148 319.2236Q153.08826 317.41165 152.95567 316.59406Q152.83414 315.7654 152.41429 315.34555Q151.97235 314.90363 151.35364 314.92572Q150.72386 314.93677 150.21564 315.445Q149.67426 315.9864 149.67426 316.6272Q149.67426 317.268 150.23773 317.85358L149.39804 318.53857Q148.6136 317.59946 148.67989 316.6493Q148.74617 315.677 149.61902 314.80417Q150.49185 313.93134 151.48622 313.90924Q152.48059 313.88715 153.19875 314.60532Q153.56334 314.9699 153.76222 315.47815Q153.96109 315.96426 154.00528 316.71558Q154.04948 317.4448 153.92795 318.91425Q153.81746 320.15167 153.8285 320.5605Q153.83955 320.94717 153.9169 321.26758L156.90001 318.2845ZM155.65152 314.98096Q154.56876 313.8982 154.13786 313.02536Q153.69592 312.14148 153.77327 311.35703Q153.86165 310.56155 154.52457 309.89862Q155.0107 309.4125 155.57417 309.24677Q156.1487 309.06998 156.76743 309.20258Q157.37509 309.3241 158.03801 309.72186Q158.70091 310.1196 159.6069 311.02557Q160.6786 312.0973 161.1095 312.97012Q161.55144 313.8319 161.4741 314.63846Q161.39676 315.4229 160.7228 316.09686Q159.84996 316.9697 158.71196 316.84818Q157.36404 316.69348 155.65152 314.98096ZM156.41386 314.2186Q157.90543 315.71017 158.75616 315.8538Q159.6069 315.99744 160.11513 315.4892Q160.63441 314.9699 160.47974 314.13022Q160.3361 313.27948 158.84454 311.78793Q157.34195 310.28534 156.50226 310.15274Q155.66257 309.99808 155.13223 310.52838Q154.62401 311.03662 154.74553 311.7769Q154.91127 312.716 156.41386 314.2186ZM160.60126 310.03122Q159.51851 308.94846 159.08762 308.07562Q158.64568 307.19174 158.723 306.4073Q158.8114 305.6118 159.47432 304.94888Q159.96045 304.46274 160.52393 304.29703Q161.09845 304.12024 161.71716 304.2528Q162.32484 304.37436 162.98775 304.7721Q163.65067 305.16986 164.55664 306.07584Q165.62836 307.14755 166.05925 308.0204Q166.50119 308.88217 166.42384 309.6887Q166.34651 310.47314 165.67255 311.14713Q164.79971 312.01996 163.66171 311.8984Q162.31378 311.74374 160.60126 310.03122ZM161.36362 309.26886Q162.85516 310.7604 163.7059 310.90405Q164.55664 311.04767 165.06488 310.53943Q165.58415 310.02017 165.42947 309.18048Q165.28584 308.32974 163.7943 306.8382Q162.29169 305.33557 161.452 305.203Q160.61232 305.0483 160.08199 305.57864Q159.57375 306.08688 159.69528 306.82712Q159.86101 307.76627 161.36362 309.26886ZM166.40175 303.6341Q165.76094 303.92136 165.21956 303.84402Q164.67818 303.7446 164.24728 303.3137Q163.58437 302.6508 163.60646 301.72272Q163.63962 300.78357 164.42406 299.99915Q165.21956 299.20364 166.16972 299.18155Q167.1199 299.15945 167.78282 299.82236Q168.20267 300.2422 168.29105 300.77252Q168.37944 301.30286 168.10323 301.93262Q168.84348 301.54593 169.53954 301.66745Q170.2356 301.789 170.79907 302.35248Q171.57246 303.1259 171.55037 304.20862Q171.53932 305.28033 170.63335 306.1863Q169.7384 307.08124 168.65565 307.10333Q167.57289 307.12546 166.7774 306.32996Q166.18079 305.73334 166.08134 305.03726Q165.99295 304.33017 166.40175 303.6341ZM164.97649 302.5182Q165.40738 302.9491 165.95981 302.9491Q166.52328 302.93805 166.96523 302.4961Q167.39612 302.06522 167.40717 301.52383Q167.40717 300.9714 167.00941 300.57367Q166.60062 300.16486 166.03716 300.1759Q165.46262 300.1759 165.04279 300.59576Q164.6119 301.02664 164.60083 301.59012Q164.60083 302.14255 164.97649 302.5182ZM167.5508 305.55655Q167.8712 305.87695 168.31314 306.03165Q168.76614 306.17526 169.23018 306.0427Q169.69421 305.9101 170.03673 305.5676Q170.56705 305.03726 170.56705 304.35226Q170.5781 303.6562 170.04778 303.1259Q169.5064 302.5845 168.79929 302.5845Q168.09218 302.5845 167.5508 303.1259Q167.02046 303.6562 167.03151 304.35226Q167.03151 305.03726 167.5508 305.55655Z" fill-rule="nonzero"/><path fill="#000000" d="M124.07264 318.2845L124.790794 319.00262L120.76913 323.0243Q120.50396 322.75912 120.338234 322.41663Q120.084114 321.85315 120.01782 321.12396Q119.962585 320.3837 120.084114 319.2236Q120.260895 317.41165 120.12831 316.59406Q120.006775 315.7654 119.58693 315.34555Q119.14499 314.90363 118.52627 314.92572Q117.89651 314.93677 117.388275 315.445Q116.84689 315.9864 116.84689 316.6272Q116.84689 317.268 117.41037 317.85358L116.57068 318.53857Q115.78623 317.59946 115.85252 316.6493Q115.918816 315.677 116.79165 314.80417Q117.66448 313.93134 118.65885 313.90924Q119.65322 313.88715 120.371376 314.60532Q120.73598 314.9699 120.93485 315.47815Q121.13373 315.96426 121.177925 316.71558Q121.222115 317.4448 121.100586 318.91425Q120.9901 320.15167 121.001144 320.5605Q121.01219 320.94717 121.08953 321.26758L124.07264 318.2845ZM122.82416 314.98096Q121.741394 313.8982 121.3105 313.02536Q120.86856 312.14148 120.9459 311.35703Q121.034294 310.56155 121.697205 309.89862Q122.18334 309.4125 122.74682 309.24677Q123.32134 309.06998 123.940056 309.20258Q124.54773 309.3241 125.21064 309.72186Q125.87355 310.1196 126.77953 311.02557Q127.85124 312.0973 128.28214 312.97012Q128.72408 313.8319 128.64674 314.63846Q128.5694 315.4229 127.89544 316.09686Q127.0226 316.9697 125.8846 316.84818Q124.53668 316.69348 122.82416 314.98096ZM123.5865 314.2186Q125.07806 315.71017 125.928795 315.8538Q126.77953 315.99744 127.287766 315.4892Q127.807045 314.9699 127.65237 314.13022Q127.508736 313.27948 126.01718 311.78793Q124.51458 310.28534 123.6749 310.15274Q122.835205 309.99808 122.30487 310.52838Q121.79664 311.03662 121.918175 311.7769Q122.0839 312.716 123.5865 314.2186ZM127.7739 310.03122Q126.69115 308.94846 126.260254 308.07562Q125.81831 307.19174 125.89565 306.4073Q125.98404 305.6118 126.64695 304.94888Q127.13309 304.46274 127.69656 304.29703Q128.27109 304.12024 128.8898 304.2528Q129.49748 304.37436 130.16039 304.7721Q130.8233 305.16986 131.72928 306.07584Q132.801 307.14755 133.23189 308.0204Q133.67383 308.88217 133.59648 309.6887Q133.51915 310.47314 132.84518 311.14713Q131.97235 312.01996 130.83435 311.8984Q129.48642 311.74374 127.7739 310.03122ZM128.53625 309.26886Q130.0278 310.7604 130.87854 310.90405Q131.72928 311.04767 132.23752 310.53943Q132.75679 310.02017 132.60211 309.18048Q132.45848 308.32974 130.96693 306.8382Q129.46432 305.33557 128.62463 305.203Q127.78495 305.0483 127.25462 305.57864Q126.74639 306.08688 126.86792 306.82712Q127.03365 307.76627 128.53625 309.26886ZM130.48079 302.7502L129.76263 302.03207L133.69592 298.0988L134.2815 298.68436Q134.32568 299.8776 134.77869 301.47964Q135.23167 303.05957 136.00507 304.4517Q136.5354 305.44608 137.38614 306.4073L136.61273 307.1807Q135.90562 306.45148 135.15433 305.16986Q134.41408 303.87717 133.97214 302.44086Q133.54124 300.9935 133.4639 299.76712L130.48079 302.7502Z" fill-rule="nonzero"/><path fill="#000000" d="M91.24527 318.2845L91.963425 319.00262L87.94176 323.0243Q87.67659 322.75912 87.510864 322.41663Q87.25675 321.85315 87.19046 321.12396Q87.135216 320.3837 87.25675 319.2236Q87.433525 317.41165 87.30094 316.59406Q87.17941 315.7654 86.75957 315.34555Q86.31762 314.90363 85.698906 314.92572Q85.06914 314.93677 84.560905 315.445Q84.01952 315.9864 84.01952 316.6272Q84.01952 317.268 84.583 317.85358L83.74331 318.5386Q82.95886 317.59946 83.025154 316.6493Q83.091446 315.67703 83.96428 314.8042Q84.83712 313.93137 85.83149 313.90924Q86.82586 313.88715 87.544014 314.60532Q87.908615 314.9699 88.10749 315.47815Q88.30636 315.9643 88.350555 316.71558Q88.39475 317.4448 88.27322 318.91425Q88.16273 320.15167 88.173775 320.5605Q88.18483 320.94717 88.26217 321.26758L91.24527 318.2845ZM89.99679 314.98096Q88.91403 313.8982 88.48314 313.02536Q88.0412 312.14148 88.11854 311.35706Q88.206924 310.56155 88.869835 309.89862Q89.35597 309.4125 89.91945 309.24677Q90.49397 309.07 91.11269 309.20258Q91.72036 309.3241 92.38327 309.72186Q93.04619 310.1196 93.95216 311.02557Q95.02387 312.0973 95.454765 312.97012Q95.89671 313.8319 95.81937 314.63846Q95.74203 315.4229 95.06807 316.09686Q94.19524 316.9697 93.057236 316.84818Q91.70931 316.69348 89.99679 314.98096ZM90.75914 314.21863Q92.250694 315.71017 93.101425 315.8538Q93.95216 315.99744 94.460396 315.4892Q94.97968 314.9699 94.825005 314.13022Q94.68137 313.27948 93.18982 311.78793Q91.68722 310.28534 90.84753 310.15274Q90.007835 309.99808 89.47751 310.5284Q88.96928 311.03662 89.090805 311.7769Q89.25654 312.716 90.75914 314.21863ZM94.94653 310.03122Q93.86378 308.94846 93.432884 308.07562Q92.990944 307.19174 93.06828 306.4073Q93.15667 305.6118 93.81958 304.94888Q94.30572 304.46274 94.869194 304.29703Q95.44372 304.12024 96.06244 304.25284Q96.670105 304.37436 97.33302 304.7721Q97.99593 305.16986 98.90192 306.07584Q99.973625 307.14755 100.40452 308.0204Q100.84646 308.88217 100.76912 309.68872Q100.69178 310.47314 100.017815 311.14713Q99.14498 312.01996 98.00698 311.8984Q96.65906 311.74374 94.94653 310.03122ZM95.708885 309.26886Q97.20044 310.7604 98.05118 310.90405Q98.90192 311.04767 99.41015 310.53946Q99.92943 310.02017 99.77475 309.18048Q99.63112 308.32974 98.139565 306.8382Q96.63696 305.33557 95.79727 305.203Q94.95758 305.0483 94.42725 305.57864Q93.91902 306.08688 94.04056 306.82715Q94.20628 307.76627 95.708885 309.26886ZM102.17228 299.62347L101.487274 300.41898Q100.94589 300.07648 100.570244 300.05438Q99.940475 300.04333 99.498535 300.48526Q99.14498 300.83884 99.06764 301.3139Q98.9903 301.92157 99.277565 302.6287Q99.56483 303.3137 100.459755 304.23074Q100.316124 303.55676 100.50395 302.9712Q100.70283 302.37457 101.13372 301.9437Q101.87397 301.20343 102.94568 301.23657Q104.02844 301.25867 104.89023 302.12045Q105.46475 302.69498 105.70782 303.4463Q105.95088 304.17548 105.78516 304.87155Q105.60838 305.55655 105.067 306.09793Q104.12788 307.03705 102.85729 306.93762Q101.58671 306.8382 100.017815 305.2693Q98.25005 303.50153 98.106415 302.05417Q97.97384 300.79465 98.93506 299.8334Q99.65321 299.11526 100.515 299.07108Q101.376785 299.00476 102.17228 299.62347ZM101.75244 305.28033Q102.13914 305.66705 102.64737 305.8659Q103.1556 306.0427 103.63069 305.94327Q104.11683 305.83276 104.44828 305.5013Q104.91232 305.03726 104.87917 304.31912Q104.834984 303.5899 104.18312 302.93805Q103.55335 302.3083 102.846245 302.2862Q102.150185 302.25305 101.64195 302.76126Q101.13372 303.2695 101.14477 303.98767Q101.16686 304.69476 101.75244 305.28033Z" fill-rule="nonzero"/></svg>